<svg width="83" height="64" viewBox="0 0 83 64" fill="none" xmlns="http://www.w3.org/2000/svg">
<path d="M51.4512 63.0974C68.8769 63.0974 83 48.973 83 31.5487C83 14.1244 68.8769 0 51.4512 0H19.9025V63.0974H51.4512V63.0974Z" fill="#00AB4E"/>
<path d="M79.0968 31.5265L51.5114 3.94104L23.9244 31.528L51.5099 59.1135L79.0968 31.5265Z" fill="#FFC20E"/>
<path d="M51.4533 47.3242C60.1651 47.3242 67.2273 40.2619 67.2273 31.5502C67.2273 22.8384 60.1651 15.7761 51.4533 15.7761C42.7416 15.7761 35.6793 22.8384 35.6793 31.5502C35.6793 40.2619 42.7416 47.3242 51.4533 47.3242Z" fill="#0068A6"/>
<path d="M21.3066 0H0V63.0974H21.3066V0Z" fill="#00AB4E"/>
</svg>
