<svg width="84" height="64" viewBox="0 0 84 64" fill="none" xmlns="http://www.w3.org/2000/svg">
<path d="M22.0651 0H0.759033V63.098H22.0651V0Z" fill="#FFC20E"/>
<path d="M52.2128 63.0967C69.6359 63.0967 83.7591 48.9735 83.7591 31.549C83.7591 14.1246 69.6359 0.00146484 52.2128 0.00146484H20.6638V63.0967H52.2128V63.0967Z" fill="#FFC20E"/>
<path d="M66.7307 50.1045C58.724 42.0964 45.6982 42.0964 37.6942 50.1045L33.6564 46.0668C43.8876 35.8356 60.5344 35.8356 70.7683 46.0668L66.7307 50.1045Z" fill="#E7E9EA"/>
<path d="M66.7307 50.1046C56.4995 39.872 56.4995 23.2252 66.7307 12.994L70.7683 17.0304C62.7595 25.0357 62.7595 38.0615 70.7683 46.0668L66.7307 50.1046Z" fill="#E7E9EA"/>
<path d="M52.2131 24.7047C45.4936 24.7047 38.7728 22.1447 33.6575 17.0315L37.6952 12.9951C45.6992 21.0018 58.725 21.0018 66.7317 12.9951L70.7695 17.0315C65.6508 22.1447 58.9333 24.7047 52.2131 24.7047Z" fill="#E7E9EA"/>
<path d="M37.6952 50.1046L33.6575 46.0668C41.6643 38.0615 41.6643 25.0357 33.6575 17.0304L37.6952 12.994C47.9237 23.2259 47.9237 39.8727 37.6952 50.1046Z" fill="#E7E9EA"/>
</svg>
