<svg width="210" height="51" viewBox="0 0 210 51" fill="none" xmlns="http://www.w3.org/2000/svg">
<path d="M0 0V50.5996H209.545V0H0Z" fill="white"/>
<path d="M49.007 24.2856C49.501 23.8929 49.749 23.2607 49.749 22.3887C49.749 20.8438 48.792 20.0714 46.88 20.0714C46.53 20.0714 46.023 20.1141 45.355 20.1975V24.7894C45.769 24.8504 46.224 24.8772 46.72 24.8772C47.752 24.8761 48.513 24.6793 49.007 24.2856ZM105.33 21.4526C104.625 22.4454 104.277 23.7219 104.277 25.2839C104.277 26.8427 104.625 28.1157 105.33 29.1139C106.029 30.1089 107.029 30.6043 108.328 30.6043C109.637 30.6043 110.644 30.1089 111.348 29.1139C112.047 28.1157 112.401 26.8427 112.401 25.2839C112.401 23.7219 112.047 22.4454 111.348 21.4526C110.645 20.4544 109.637 19.9622 108.328 19.9622C107.029 19.9633 106.029 20.4555 105.33 21.4526ZM13.863 26.7678H16.168L17.09 23.9528H14.785L13.863 26.7678ZM177.019 19.9601C175.722 19.9601 174.722 20.4587 174.019 21.4516C173.32 22.4498 172.966 23.7259 172.966 25.2816C172.966 26.8436 173.32 28.121 174.019 29.1139C174.722 30.111 175.722 30.6043 177.019 30.6043C178.33 30.6043 179.337 30.111 180.039 29.1139C180.74 28.121 181.094 26.8436 181.094 25.2816C181.094 23.7259 180.74 22.4498 180.039 21.4516C179.337 20.4587 178.33 19.9601 177.019 19.9601ZM56.468 20.1132C56.148 20.1132 55.888 20.0126 55.687 19.8125C55.486 19.6103 55.386 19.3416 55.386 18.996C55.386 18.6665 55.486 18.398 55.687 18.1894C55.888 17.9818 56.148 17.877 56.468 17.877H60.118C60.44 17.877 60.7 17.9818 60.901 18.1894C61.1 18.398 61.204 18.6665 61.204 18.996C61.204 19.3405 61.1 19.6092 60.901 19.8125C60.7 20.0137 60.44 20.1132 60.118 20.1132H59.499V30.4557H60.118C60.44 30.4557 60.7 30.5605 60.901 30.7681C61.1 30.9756 61.204 31.2452 61.204 31.5736C61.204 31.916 61.1 32.1877 60.901 32.3878C60.7 32.5889 60.44 32.6895 60.118 32.6895H56.468C56.148 32.6895 55.888 32.5879 55.687 32.3878C55.486 32.1877 55.386 31.9171 55.386 31.5736C55.386 31.2452 55.486 30.9756 55.687 30.7681C55.888 30.5605 56.148 30.4557 56.468 30.4557H57.091V20.1132H56.468ZM135.849 20.1751V23.9304H140.324C140.683 23.9304 140.969 24.032 141.174 24.231C141.383 24.4311 141.487 24.7082 141.487 25.0666C141.487 25.4122 141.383 25.6892 141.174 25.9053C140.969 26.1193 140.684 26.2263 140.324 26.2263H135.849V30.3925H140.585V29.5099C140.585 29.1525 140.679 28.8583 140.864 28.6197C141.052 28.3854 141.319 28.2655 141.667 28.2655C142.028 28.2655 142.306 28.3854 142.501 28.6197C142.692 28.8583 142.79 29.1525 142.79 29.5099V31.442C142.79 31.8004 142.692 32.0968 142.501 32.3322C142.306 32.5686 142.028 32.6884 141.667 32.6884H132.819C132.499 32.6884 132.239 32.5868 132.038 32.3878C131.837 32.1867 131.737 31.9161 131.737 31.5705C131.737 31.241 131.837 30.9725 132.038 30.767C132.239 30.5595 132.499 30.4578 132.819 30.4578H133.442V20.1108H132.819C132.499 20.1108 132.239 20.0124 132.038 19.8091C131.837 19.6112 131.737 19.3395 131.737 18.995C131.737 18.6654 131.837 18.398 132.038 18.1925C132.239 17.985 132.499 17.8801 132.819 17.8801H141.465C141.826 17.8801 142.104 17.9947 142.299 18.2333C142.492 18.4687 142.59 18.7682 142.59 19.1245V20.9049C142.59 21.2611 142.492 21.5596 142.299 21.7961C142.104 22.0325 141.826 22.149 141.465 22.149C141.104 22.149 140.832 22.0325 140.654 21.7961C140.47 21.5596 140.383 21.2611 140.383 20.9049V20.1751H135.849ZM42.328 20.1132C42.006 20.1132 41.746 20.0126 41.545 19.8125C41.346 19.6103 41.244 19.3416 41.244 18.996C41.244 18.6665 41.346 18.398 41.545 18.1894C41.746 17.9818 42.006 17.877 42.328 17.877H45.117C45.742 17.8075 46.398 17.7733 47.082 17.7733C50.545 17.7733 52.277 19.2592 52.277 22.2367C52.277 23.251 52.048 24.108 51.595 24.8098C51.14 25.5106 50.523 26.0049 49.749 26.2895L52.315 30.4557H52.797C53.117 30.4557 53.379 30.5605 53.578 30.7681C53.777 30.9756 53.881 31.2452 53.881 31.5736C53.881 31.916 53.777 32.1877 53.578 32.3878C53.379 32.5889 53.117 32.6895 52.797 32.6895H49.065C48.745 32.6895 48.485 32.5879 48.286 32.3878C48.085 32.1877 47.983 31.9171 47.983 31.5736C47.983 31.2452 48.085 30.9756 48.286 30.7681C48.485 30.5605 48.745 30.4557 49.065 30.4557H49.487L47.401 26.7678C47.225 26.7956 46.94 26.8083 46.538 26.8083C46.11 26.8083 45.716 26.7785 45.354 26.7239V30.4557H45.776C46.098 30.4557 46.358 30.5605 46.557 30.7681C46.76 30.9756 46.86 31.2452 46.86 31.5736C46.86 31.916 46.76 32.1877 46.557 32.3878C46.358 32.5889 46.098 32.6895 45.776 32.6895H42.327C42.005 32.6895 41.745 32.5879 41.544 32.3878C41.345 32.1877 41.243 31.9171 41.243 31.5736C41.243 31.2452 41.345 30.9756 41.544 30.7681C41.745 30.5605 42.005 30.4557 42.327 30.4557H42.948V20.1132H42.328ZM114.925 25.2839C114.925 27.5135 114.351 29.342 113.2 30.766C112.052 32.1889 110.425 32.9013 108.327 32.9013C106.227 32.9013 104.606 32.1889 103.46 30.766C102.317 29.342 101.747 27.5135 101.747 25.2839C101.747 23.0639 102.317 21.2385 103.46 19.8081C104.606 18.3776 106.228 17.6631 108.327 17.6631C110.425 17.6631 112.052 18.3776 113.2 19.8081C114.351 21.2385 114.925 23.0639 114.925 25.2839ZM24.332 20.1132C24.012 20.1132 23.752 20.0126 23.551 19.8125C23.352 19.6103 23.25 19.3416 23.25 18.996C23.25 18.6665 23.352 18.398 23.551 18.1894C23.752 17.9818 24.012 17.877 24.332 17.877H26.078C26.586 17.877 27 18.1605 27.322 18.7157L31.412 25.6271L35.426 18.6954C35.746 18.1519 36.143 17.877 36.61 17.877H38.354C38.676 17.877 38.936 17.9818 39.137 18.1894C39.338 18.398 39.438 18.6665 39.438 18.996C39.438 19.3405 39.338 19.6092 39.137 19.8125C38.936 20.0137 38.676 20.1132 38.354 20.1132H37.735V30.4557H38.354C38.676 30.4557 38.936 30.5605 39.137 30.7681C39.338 30.9756 39.438 31.2452 39.438 31.5736C39.438 31.916 39.338 32.1877 39.137 32.3878C38.936 32.5889 38.676 32.6895 38.354 32.6895H34.704C34.384 32.6895 34.124 32.5879 33.921 32.3878C33.722 32.1877 33.622 31.9171 33.622 31.5736C33.622 31.2452 33.722 30.9756 33.921 30.7681C34.124 30.5605 34.384 30.4557 34.704 30.4557H35.327V22.6455L32.399 27.7092C32.104 28.2238 31.735 28.4828 31.295 28.4828C30.84 28.4828 30.467 28.2302 30.17 27.7306L27.201 22.7492V30.4557H27.984C28.304 30.4557 28.566 30.5605 28.765 30.7681C28.966 30.9756 29.068 31.2452 29.068 31.5736C29.068 31.916 28.966 32.1877 28.765 32.3878C28.566 32.5889 28.304 32.6895 27.984 32.6895H24.332C24.012 32.6895 23.752 32.5879 23.551 32.3878C23.352 32.1877 23.25 31.9171 23.25 31.5736C23.25 31.2452 23.352 30.9756 23.551 30.7681C23.752 30.5605 24.012 30.4557 24.332 30.4557H24.955V20.1132H24.332ZM15.005 32.8619C14.722 32.7741 14.556 32.5816 14.503 32.2927C14.45 31.9964 14.482 31.7298 14.603 31.4859L15.566 28.5458H13.257L12.155 31.9351C11.887 32.7354 11.479 33.048 10.93 32.8619C10.651 32.7741 10.485 32.5816 10.43 32.2927C10.379 31.9964 10.409 31.7298 10.53 31.4859L11.493 28.5458H10.831C10.216 28.5458 9.909 28.2483 9.909 27.6439C9.909 27.0565 10.216 26.7678 10.831 26.7678H12.095L13.019 23.9528H12.015C11.402 23.9528 11.091 23.6543 11.091 23.0519C11.091 22.4646 11.402 22.1748 12.015 22.1748H13.619L14.844 18.4579C15.057 17.7871 15.446 17.5443 16.006 17.7294C16.518 17.8995 16.649 18.337 16.41 19.0399L15.365 22.1748H17.691L18.916 18.4579C19.131 17.7871 19.518 17.5443 20.082 17.7294C20.588 17.8995 20.723 18.337 20.482 19.0399L19.437 22.1748H20.4C21.002 22.1748 21.302 22.4646 21.302 23.0519C21.302 23.3397 21.222 23.5613 21.062 23.7143C20.902 23.8727 20.683 23.9528 20.4 23.9528H18.857L17.935 26.7678H19.195C19.799 26.7678 20.101 27.0576 20.101 27.6439C20.101 27.9327 20.019 28.1543 19.859 28.3063C19.699 28.4657 19.476 28.5458 19.195 28.5458H17.334L16.229 31.9351C15.961 32.7354 15.552 33.048 15.005 32.8619ZM99.621 32.6874H90.953C90.635 32.6874 90.373 32.5858 90.172 32.3868C89.973 32.1856 89.873 31.915 89.873 31.5695C89.873 31.2399 89.973 30.9714 90.172 30.766C90.373 30.5584 90.635 30.4567 90.953 30.4567H91.578V20.1098H90.953C90.635 20.1098 90.373 20.0114 90.172 19.8081C89.973 19.6101 89.873 19.3384 89.873 18.9939C89.873 18.6644 89.973 18.397 90.172 18.1894C90.373 17.984 90.635 17.8791 90.953 17.8791H94.646C94.968 17.8791 95.228 17.984 95.427 18.1894C95.628 18.397 95.73 18.6644 95.73 18.9939C95.73 19.3373 95.628 19.6101 95.427 19.8081C95.228 20.0114 94.968 20.1098 94.646 20.1098H93.984V30.3914H98.457V29.296C98.457 28.9397 98.551 28.6401 98.738 28.4047C98.924 28.1683 99.193 28.0516 99.539 28.0516C99.9 28.0516 100.18 28.1683 100.373 28.4047C100.568 28.6401 100.666 28.9397 100.666 29.296V31.4409C100.666 31.7994 100.576 32.0957 100.395 32.3311C100.211 32.5676 99.955 32.6874 99.621 32.6874ZM169.277 19.8125C169.076 20.0104 168.816 20.1132 168.492 20.1132H168.213L164.442 26.1634V30.4557H164.864C165.186 30.4557 165.446 30.5595 165.645 30.7681C165.846 30.9724 165.948 31.242 165.948 31.5705C165.948 31.9129 165.846 32.1867 165.645 32.3878C165.446 32.5879 165.186 32.6864 164.864 32.6864H161.614C161.292 32.6864 161.032 32.5868 160.833 32.3878C160.632 32.1867 160.53 31.9139 160.53 31.5705C160.53 31.242 160.632 30.9724 160.833 30.7681C161.032 30.5595 161.292 30.4557 161.614 30.4557H162.036V26.2702L157.983 20.1132H157.643C157.319 20.1132 157.061 20.0094 156.86 19.8125C156.659 19.6103 156.561 19.3384 156.561 18.995C156.561 18.6654 156.659 18.397 156.86 18.1894C157.061 17.9818 157.319 17.877 157.643 17.877H161.133C161.451 17.877 161.715 17.9818 161.916 18.1894C162.115 18.397 162.215 18.6654 162.215 18.995C162.215 19.3373 162.115 19.6092 161.916 19.8125C161.715 20.0104 161.451 20.1132 161.133 20.1132H160.932L163.321 23.9528L165.626 20.1132H165.548C165.226 20.1132 164.964 20.0094 164.763 19.8125C164.562 19.6103 164.462 19.3384 164.462 18.995C164.462 18.6654 164.562 18.397 164.763 18.1894C164.964 17.9818 165.226 17.877 165.548 17.877H168.493C168.817 17.877 169.077 17.9818 169.278 18.1894C169.477 18.397 169.579 18.6654 169.579 18.995C169.578 19.3384 169.476 19.6103 169.277 19.8125ZM181.894 30.7681C180.744 32.1889 179.119 32.8992 177.019 32.8992C174.917 32.8992 173.298 32.1889 172.156 30.7681C171.011 29.3419 170.441 27.5144 170.441 25.2805C170.441 23.0648 171.011 21.2429 172.156 19.8125C173.299 18.381 174.918 17.6631 177.019 17.6631C179.119 17.6631 180.744 18.381 181.894 19.8125C183.044 21.2429 183.619 23.0648 183.619 25.2805C183.619 27.5144 183.044 29.3419 181.894 30.7681ZM124.595 31.915C124.355 32.5741 123.947 32.9024 123.372 32.9024C122.851 32.9024 122.462 32.5869 122.208 31.9589L117.636 20.1108H117.154C116.834 20.1108 116.574 20.0124 116.373 19.8091C116.172 19.6112 116.072 19.3395 116.072 18.995C116.072 18.6654 116.172 18.398 116.373 18.1905C116.574 17.985 116.834 17.8801 117.154 17.8801H120.644C120.966 17.8801 121.226 17.985 121.425 18.1905C121.626 18.398 121.728 18.6654 121.728 18.995C121.728 19.3384 121.626 19.6112 121.425 19.8091C121.226 20.0124 120.966 20.1108 120.644 20.1108H120.244L123.514 29.0392L126.563 20.1108H126.102C125.782 20.1108 125.52 20.0124 125.319 19.8091C125.118 19.6112 125.018 19.3395 125.018 18.995C125.018 18.6654 125.118 18.398 125.319 18.1905C125.52 17.985 125.782 17.8801 126.102 17.8801H129.452C129.774 17.8801 130.034 17.985 130.233 18.1905C130.434 18.398 130.536 18.6654 130.536 18.995C130.536 19.3384 130.434 19.6112 130.233 19.8091C130.034 20.0124 129.774 20.1108 129.452 20.1108H128.911L124.595 31.915ZM199.127 19.8125C198.928 20.0104 198.664 20.1132 198.344 20.1132H197.723V26.6565C197.723 27.5445 197.635 28.3438 197.461 29.0606C197.287 29.7753 197.006 30.43 196.619 31.0248C196.232 31.6165 195.683 32.0766 194.974 32.4061C194.265 32.7356 193.423 32.8992 192.445 32.8992C190.56 32.8992 189.201 32.3354 188.363 31.1938C187.529 30.0566 187.111 28.5577 187.111 26.7004V20.1132H186.488C186.168 20.1132 185.908 20.0094 185.705 19.8125C185.504 19.6103 185.404 19.3384 185.404 18.995C185.404 18.6654 185.504 18.397 185.705 18.1894C185.908 17.9818 186.168 17.877 186.488 17.877H190.14C190.46 17.877 190.72 17.9818 190.921 18.1894C191.12 18.397 191.222 18.6654 191.222 18.995C191.222 19.3373 191.12 19.6092 190.921 19.8125C190.72 20.0104 190.46 20.1132 190.14 20.1132H189.517V26.8051C189.517 29.3397 190.501 30.6033 192.466 30.6033C194.431 30.6033 195.415 29.3268 195.415 26.7644V20.1132H194.692C194.37 20.1132 194.11 20.0094 193.909 19.8125C193.71 19.6103 193.61 19.3384 193.61 18.995C193.61 18.6654 193.71 18.397 193.909 18.1894C194.11 17.9818 194.37 17.877 194.692 17.877H198.342C198.662 17.877 198.926 17.9818 199.125 18.1894C199.324 18.397 199.426 18.6654 199.426 18.995C199.427 19.3384 199.326 19.6103 199.127 19.8125ZM67.462 32.6895C67.14 32.6895 66.88 32.5879 66.681 32.3878C66.48 32.1877 66.38 31.9171 66.38 31.5736C66.38 31.2452 66.48 30.9756 66.681 30.7681C66.88 30.5605 67.14 30.4557 67.462 30.4557H67.884V26.2712L63.833 20.1132H63.489C63.169 20.1132 62.907 20.0126 62.708 19.8125C62.507 19.6103 62.407 19.3416 62.407 18.996C62.407 18.6665 62.507 18.398 62.708 18.1894C62.907 17.9818 63.169 17.877 63.489 17.877H66.979C67.301 17.877 67.561 17.9818 67.762 18.1894C67.963 18.398 68.065 18.6665 68.065 18.996C68.065 19.3405 67.963 19.6092 67.762 19.8125C67.561 20.0137 67.301 20.1132 66.979 20.1132H66.78L69.165 23.9528L71.474 20.1132H71.394C71.074 20.1132 70.81 20.0126 70.611 19.8125C70.41 19.6103 70.31 19.3416 70.31 18.996C70.31 18.6665 70.41 18.398 70.611 18.1894C70.81 17.9818 71.074 17.877 71.394 17.877H74.343C74.663 17.877 74.923 17.9818 75.124 18.1894C75.325 18.398 75.425 18.6665 75.425 18.996C75.425 19.3405 75.325 19.6092 75.124 19.8125C74.923 20.0137 74.663 20.1132 74.343 20.1132H74.062L70.289 26.1644V30.4557H70.713C71.033 30.4557 71.295 30.5605 71.496 30.7681C71.695 30.9756 71.797 31.2452 71.797 31.5736C71.797 31.916 71.695 32.1877 71.496 32.3878C71.295 32.5889 71.033 32.6895 70.713 32.6895H67.462ZM153.781 31.669C152.965 32.4906 151.734 32.9013 150.09 32.9013C148.617 32.9013 147.348 32.6082 146.279 32.0219C145.57 31.6356 145.215 31.0847 145.215 30.369V28.6957C145.215 28.3362 145.309 28.0409 145.496 27.8045C145.684 27.5691 145.949 27.4482 146.297 27.4482C146.658 27.4482 146.936 27.5691 147.131 27.8045C147.326 28.0409 147.424 28.3362 147.424 28.6957V29.8983C148.223 30.3262 149.133 30.5401 150.151 30.5401C150.899 30.5401 151.489 30.3839 151.924 30.0694C152.359 29.7548 152.576 29.2905 152.576 28.6743C152.576 28.073 152.336 27.5862 151.855 27.2139C151.373 26.8437 150.792 26.543 150.109 26.3151C149.427 26.0851 148.744 25.822 148.052 25.531C147.364 25.2357 146.779 24.7701 146.296 24.1229C145.816 23.482 145.575 22.6604 145.575 21.6569C145.575 20.4276 145.966 19.4529 146.747 18.7382C147.53 18.0224 148.671 17.6641 150.169 17.6641C151.519 17.6641 152.685 17.9648 153.659 18.565C154.222 18.9106 154.503 19.3545 154.503 19.8969V21.5466C154.503 21.9083 154.405 22.2035 154.21 22.4399C154.017 22.6753 153.739 22.7931 153.378 22.7931C153.019 22.7931 152.747 22.6753 152.565 22.4399C152.385 22.2035 152.294 21.9083 152.294 21.5466V20.5379C151.507 20.1998 150.737 20.0254 149.987 20.0254C148.665 20.0254 148.003 20.5378 148.003 21.568C148.003 22.0292 148.177 22.4177 148.524 22.7419C148.872 23.065 149.303 23.3088 149.815 23.4811C150.333 23.6501 150.893 23.864 151.503 24.1218C152.11 24.3797 152.673 24.6537 153.189 24.9394C153.703 25.225 154.134 25.6636 154.482 26.2488C154.828 26.8361 155.003 27.538 155.003 28.3543C155.003 29.7388 154.595 30.8473 153.781 31.669ZM88.384 32.3878C88.183 32.5889 87.923 32.6895 87.601 32.6895H84.654C84.332 32.6895 84.072 32.5879 83.873 32.3878C83.672 32.1877 83.57 31.9171 83.57 31.5736C83.57 31.2452 83.672 30.9756 83.873 30.7681C84.072 30.5605 84.332 30.4557 84.654 30.4557H84.834L84.152 28.5053H78.998L78.316 30.4557H78.517C78.837 30.4557 79.097 30.5605 79.298 30.7681C79.499 30.9756 79.599 31.2452 79.599 31.5736C79.599 31.916 79.499 32.1877 79.298 32.3878C79.097 32.5889 78.837 32.6895 78.517 32.6895H75.706C75.384 32.6895 75.124 32.5879 74.925 32.3878C74.724 32.1877 74.622 31.9171 74.622 31.5736C74.622 31.2452 74.724 30.9756 74.925 30.7681C75.124 30.5605 75.384 30.4557 75.706 30.4557H76.048L80.421 18.7157C80.675 18.015 81.081 17.6631 81.646 17.6631C82.179 17.6631 82.568 17.9733 82.808 18.5906L87.322 30.4557H87.601C87.923 30.4557 88.183 30.5605 88.384 30.7681C88.585 30.9756 88.687 31.2452 88.687 31.5736C88.687 31.9171 88.586 32.1877 88.384 32.3878ZM79.64 26.4875H83.47L81.525 21.078L79.64 26.4875Z" fill="#A89879"/>
</svg>
