<svg width="213" height="151" viewBox="0 0 213 151" fill="none" xmlns="http://www.w3.org/2000/svg">
<rect width="213" height="151" fill="white"/>
<path d="M86.1568 90.8004H95.4006C95.4006 89.7671 94.1691 90.7157 92.8367 89.1671C92.4931 88.7928 92.476 87.4125 92.476 86.9467V81.2719C92.541 81.2727 92.6059 81.2762 92.6726 81.2779C92.8093 81.283 92.9512 81.289 93.0896 81.289C93.452 81.289 93.8178 81.2779 94.181 81.2634L101.105 90.7995H106.948C106.948 89.8073 106.447 90.4251 104.13 88.9321C103.242 88.3629 102.326 87.1595 101.716 86.3143L97.7167 80.7779C99.0371 80.4394 100.364 79.8617 101.279 78.8284C102.145 77.8507 102.568 76.6987 102.568 75.3919C102.568 74.1928 102.207 73.1152 101.433 72.1965C100.695 71.3264 99.7867 70.7042 98.6987 70.3692C97.2697 69.9307 95.322 69.8864 93.8349 69.8864H86.1568C86.1568 71.17 89.0814 69.7991 89.0814 74.1176V86.9459C89.0814 91.3781 86.1568 89.4483 86.1568 90.8004ZM92.4769 71.7665C93.1512 71.6426 93.8836 71.5333 94.5588 71.5333C95.6818 71.5333 96.7108 71.8418 97.5116 72.652C98.303 73.4545 98.6201 74.4681 98.6201 75.5843C98.6201 76.809 98.1662 77.8131 97.2381 78.6148C96.1194 79.5805 94.4836 79.8147 93.0546 79.8147C92.9461 79.8147 92.8358 79.8097 92.7273 79.8037C92.6435 79.802 92.5606 79.8002 92.4769 79.8002V71.7665ZM108.111 90.8004H117.472C117.472 89.1039 114.551 91.5105 114.551 86.9467V73.7399C114.551 69.1778 117.472 71.5845 117.472 69.8872H108.111C108.111 71.5845 111.036 69.1778 111.036 73.7399V86.9467C111.036 91.5105 108.111 89.103 108.111 90.8004ZM68.5579 90.8004H69.3741L76.8052 74.5399V87.0083C76.8052 87.4732 76.7881 88.6688 76.5163 89.0654C75.3344 90.7918 73.884 89.8662 73.884 90.8004H83.1279C83.1279 89.7363 81.9023 90.691 80.564 89.192C80.2238 88.8133 80.2016 87.4852 80.2016 87.0075V73.6793C80.2016 70.1154 83.1279 71.0341 83.1279 69.8864H76.9214L69.7971 85.4879L62.6061 69.8864H56.3433C56.3433 70.4838 56.6133 70.3307 58.3184 71.2118C58.5935 71.3528 58.8525 71.5495 58.991 71.8332C59.2345 72.3212 59.2679 73.1434 59.2679 73.6793V87.0075C59.2679 87.4673 59.2525 88.6723 58.9807 89.0637C57.7756 90.7918 56.3433 89.968 56.3433 90.7995H64.0214C64.0214 89.9816 62.7625 90.6918 61.4438 89.1945C61.1131 88.821 61.0968 87.4758 61.0968 87.0075V74.5347L68.5579 90.8004ZM119.264 108.206L120.84 107.375L122.418 108.206L122.115 106.446L123.394 105.203L121.63 104.947L120.84 103.348L120.052 104.947L118.289 105.203L119.564 106.446L119.264 108.206ZM114.738 104.947L113.948 103.348L113.158 104.947L111.397 105.203L112.674 106.446L112.37 108.206L113.948 107.375L115.526 108.206L115.225 106.446L116.5 105.203L114.738 104.947ZM107.843 104.947L107.055 103.348L106.266 104.947L104.503 105.203L105.779 106.446L105.476 108.206L107.055 107.375L108.631 108.206L108.331 106.446L109.606 105.203L107.843 104.947ZM100.95 104.947L100.162 103.348L99.3739 104.947L97.6099 105.203L98.8867 106.446L98.5842 108.206L100.162 107.375L101.74 108.206L101.437 106.446L102.714 105.203L100.95 104.947ZM125.961 106.807L145.403 106.246V106.176L125.961 105.617V106.807ZM94.0588 104.947L93.2691 103.348L92.4794 104.947L90.7163 105.203L91.9931 106.446L91.6906 108.206L93.2683 107.375L94.8442 108.206L94.5434 106.446L95.8202 105.203L94.0588 104.947ZM88.1498 105.617L68.7066 106.175V106.245L88.1498 106.806V105.617ZM84.2176 96.3615C84.2458 96.4256 84.2612 96.5897 84.2612 96.8547V99.1067C84.2612 99.4878 84.321 99.793 84.4449 100.018C84.5654 100.245 84.7757 100.429 85.0722 100.573C85.2893 100.68 85.5961 100.731 85.9935 100.731C86.4713 100.731 86.8447 100.632 87.1216 100.431C87.3986 100.231 87.5703 100.011 87.6421 99.7699C87.7122 99.5297 87.749 99.14 87.749 98.5998V96.8538C87.749 96.6667 87.7626 96.535 87.7925 96.4641C87.8327 96.3598 87.8942 96.2812 87.9797 96.23C88.0669 96.1778 88.1737 96.1521 88.3002 96.1521H88.3968V96.0265H86.808V96.1521C86.9918 96.1521 87.1353 96.1778 87.2388 96.23C87.302 96.2633 87.3575 96.3248 87.4003 96.4137C87.4422 96.5017 87.4635 96.6487 87.4635 96.8547V98.7289C87.4635 99.2178 87.4216 99.5605 87.3353 99.7562C87.2464 99.9536 87.1148 100.107 86.9413 100.219C86.7644 100.331 86.5542 100.386 86.3055 100.386C86.0884 100.386 85.9098 100.343 85.7662 100.254C85.6226 100.166 85.5209 100.056 85.4594 99.922C85.3961 99.7887 85.3662 99.5161 85.3662 99.1058V96.8538C85.3662 96.5914 85.3799 96.4283 85.4098 96.3624C85.4363 96.2966 85.485 96.2445 85.5517 96.2069C85.6166 96.1701 85.7406 96.1521 85.9192 96.1521H86.038V96.0265H83.6646V96.1521C83.8603 96.1496 83.9919 96.1684 84.0654 96.206C84.1372 96.2453 84.1877 96.2974 84.2176 96.3615ZM90.5454 100.344C90.4471 100.445 90.2702 100.498 90.0181 100.5V100.625H91.6487V100.5H91.5385C91.3829 100.5 91.2445 100.453 91.1248 100.36C91.0052 100.268 90.9411 100.09 90.9411 99.8245V96.9025L94.0528 100.731H94.1682V96.9025C94.1682 96.6855 94.1862 96.5325 94.2229 96.4428C94.2614 96.3522 94.3118 96.2889 94.3802 96.2496C94.4468 96.2103 94.5759 96.177 94.7707 96.1531V96.0274H93.252V96.1531C93.5076 96.1488 93.6896 96.2103 93.7982 96.3427C93.8768 96.4402 93.917 96.6265 93.917 96.9025V98.8793L91.6504 96.0274H90.0198V96.1531C90.1582 96.1573 90.265 96.1787 90.342 96.2171C90.4155 96.2556 90.5026 96.3359 90.5992 96.4573L90.6958 96.5804V99.8245C90.6941 100.068 90.6437 100.242 90.5454 100.344ZM97.0868 100.266C97.0535 100.343 97.0082 100.397 96.9501 100.429C96.868 100.476 96.7612 100.5 96.6279 100.5H96.4758V100.625H98.8799V100.5H98.726C98.5996 100.5 98.4953 100.477 98.4192 100.434C98.344 100.389 98.2927 100.339 98.2688 100.278C98.2423 100.22 98.2286 100.074 98.2286 99.8374V96.8137C98.2286 96.5838 98.2423 96.4402 98.2654 96.3855C98.2987 96.3094 98.3457 96.2547 98.4055 96.2231C98.4859 96.1752 98.5944 96.1521 98.726 96.1521H98.8799V96.0265H96.4758V96.1521H96.6279C96.7561 96.1521 96.8595 96.1735 96.9347 96.218C97.0099 96.2633 97.0595 96.3137 97.0868 96.3718C97.1099 96.4317 97.1236 96.5778 97.1236 96.8137V99.8374C97.1236 100.068 97.1108 100.211 97.0868 100.266ZM102.929 100.731L104.514 97.2188C104.703 96.8008 104.843 96.5351 104.938 96.4214C105.069 96.2693 105.218 96.1804 105.385 96.1539V96.0282H103.875V96.1539C104.037 96.1539 104.164 96.1727 104.261 96.2112C104.333 96.2377 104.386 96.2778 104.421 96.3299C104.458 96.382 104.476 96.4419 104.476 96.5103C104.476 96.5684 104.461 96.6402 104.438 96.7239C104.415 96.8077 104.348 96.9726 104.238 97.2188L103.329 99.2563L102.35 96.9675C102.245 96.7257 102.185 96.5769 102.166 96.5222C102.148 96.4666 102.138 96.4188 102.138 96.3769C102.138 96.312 102.164 96.2625 102.218 96.2291C102.29 96.1778 102.425 96.1539 102.626 96.1539H102.699V96.0282H100.496V96.1539C100.675 96.1744 100.797 96.2231 100.86 96.3001C100.923 96.377 101.054 96.635 101.242 97.076L102.82 100.731H102.929ZM111.179 99.1639H111.055C110.941 99.5716 110.754 99.8733 110.496 100.072C110.236 100.272 109.892 100.372 109.463 100.372H109.189C109.056 100.372 108.962 100.354 108.904 100.317C108.846 100.281 108.806 100.235 108.782 100.179C108.762 100.123 108.752 99.9673 108.752 99.7134V98.4178C108.969 98.4178 109.137 98.4478 109.253 98.505C109.368 98.5631 109.47 98.6751 109.556 98.8426C109.642 99.0101 109.7 99.2247 109.726 99.487H109.856V97.0803H109.726C109.689 97.4367 109.607 97.7076 109.476 97.8905C109.346 98.0734 109.134 98.1648 108.842 98.1648H108.752V96.294H109.226C109.573 96.294 109.811 96.3137 109.937 96.3539C110.154 96.4231 110.324 96.529 110.442 96.6734C110.562 96.8187 110.652 97.0572 110.717 97.3897H110.845V96.0291H106.997V96.1547H107.151C107.3 96.1547 107.417 96.1855 107.503 96.2487C107.563 96.2923 107.607 96.3538 107.63 96.4325C107.64 96.4812 107.647 96.6077 107.647 96.8153V99.84C107.647 100.071 107.633 100.214 107.608 100.268C107.577 100.345 107.53 100.399 107.473 100.43C107.39 100.478 107.283 100.501 107.151 100.501H106.997V100.627H110.971L111.179 99.1639ZM116.233 98.452C116.514 98.3819 116.731 98.2776 116.888 98.1375C117.132 97.9153 117.256 97.6349 117.256 97.2965C117.256 97.0179 117.172 96.7761 117.01 96.5684C116.849 96.3624 116.638 96.2197 116.38 96.1427C116.124 96.0667 115.717 96.0274 115.159 96.0274H113.023V96.1531C113.233 96.1531 113.376 96.1718 113.453 96.2102C113.53 96.2487 113.585 96.3 113.615 96.365C113.645 96.4299 113.66 96.5863 113.66 96.835V99.8178C113.66 100.066 113.645 100.224 113.615 100.286C113.585 100.349 113.529 100.401 113.456 100.441C113.379 100.48 113.235 100.5 113.022 100.5V100.625H115.375V100.5C115.165 100.5 115.022 100.481 114.945 100.442C114.868 100.403 114.815 100.353 114.784 100.289C114.754 100.224 114.737 100.066 114.737 99.8178V98.5297H115.04L116.52 100.625H117.968V100.5C117.844 100.492 117.738 100.454 117.646 100.384C117.586 100.335 117.483 100.209 117.338 100.008L116.233 98.452ZM116.003 97.8905C115.916 98.0418 115.792 98.1452 115.637 98.2025C115.481 98.2597 115.245 98.2887 114.931 98.2887H114.737V96.2744H115.101C115.465 96.2744 115.728 96.359 115.892 96.5256C116.056 96.6931 116.138 96.9521 116.138 97.3025C116.138 97.5444 116.093 97.7401 116.003 97.8905ZM121.288 100.495C120.961 100.495 120.654 100.369 120.37 100.112C120.086 99.8545 119.896 99.4827 119.796 98.9947H119.671V100.729H119.796C119.836 100.637 119.889 100.568 119.956 100.524C120.021 100.477 120.083 100.455 120.142 100.455C120.212 100.455 120.301 100.477 120.41 100.524C120.604 100.605 120.767 100.66 120.894 100.69C121.022 100.717 121.16 100.731 121.304 100.731C121.765 100.731 122.145 100.595 122.446 100.317C122.745 100.041 122.895 99.71 122.895 99.3254C122.895 99.022 122.803 98.7537 122.616 98.5187C122.429 98.2845 122.065 98.035 121.528 97.7692C121.144 97.5786 120.901 97.447 120.794 97.3726C120.647 97.2692 120.543 97.1641 120.477 97.0581C120.43 96.9786 120.407 96.888 120.407 96.7863C120.407 96.6257 120.473 96.4837 120.607 96.3615C120.742 96.2384 120.925 96.1761 121.155 96.1761C121.454 96.1761 121.732 96.294 121.99 96.5265C122.245 96.7606 122.407 97.0701 122.471 97.4538H122.611L122.574 95.9214H122.471C122.442 96.0598 122.411 96.147 122.378 96.1837C122.344 96.2188 122.297 96.2377 122.239 96.2377C122.178 96.2377 122.071 96.2009 121.919 96.1274C121.765 96.0539 121.637 96.0035 121.53 95.977C121.39 95.9402 121.246 95.9223 121.096 95.9223C120.686 95.9223 120.348 96.0505 120.079 96.3094C119.811 96.5658 119.675 96.8786 119.675 97.2453C119.675 97.4598 119.724 97.6563 119.824 97.8349C119.92 98.0135 120.062 98.1742 120.244 98.3204C120.428 98.4639 120.728 98.6391 121.146 98.8451C121.447 98.9913 121.654 99.1118 121.77 99.2033C121.89 99.293 121.977 99.3904 122.034 99.4922C122.091 99.5939 122.121 99.699 122.121 99.8075C122.121 99.9913 122.044 100.151 121.894 100.289C121.742 100.428 121.542 100.495 121.288 100.495ZM125.325 100.266C125.294 100.343 125.247 100.397 125.19 100.429C125.106 100.477 125 100.5 124.866 100.5H124.714V100.625H128.688L128.895 99.1639H128.769C128.657 99.5716 128.469 99.8733 128.211 100.072C127.954 100.272 127.607 100.372 127.18 100.372H126.905C126.773 100.372 126.679 100.354 126.619 100.317C126.563 100.281 126.521 100.235 126.499 100.179C126.479 100.123 126.469 99.9673 126.469 99.7134V98.4178C126.686 98.4178 126.854 98.4478 126.97 98.505C127.083 98.5631 127.185 98.6751 127.273 98.8426C127.358 99.0093 127.417 99.2247 127.443 99.487H127.571V97.0803H127.443C127.406 97.4367 127.323 97.7076 127.193 97.8905C127.061 98.0734 126.849 98.1648 126.558 98.1648H126.469V96.294H126.943C127.29 96.294 127.528 96.3137 127.654 96.3539C127.871 96.4231 128.04 96.529 128.158 96.6734C128.277 96.8187 128.369 97.0572 128.434 97.3897H128.562V96.0291H124.714V96.1547H124.866C125.017 96.1547 125.134 96.1855 125.22 96.2487C125.28 96.2923 125.323 96.3538 125.345 96.4325C125.355 96.4812 125.363 96.6077 125.363 96.8153V99.84C125.364 100.068 125.351 100.212 125.325 100.266ZM142.674 76.1244C143.318 74.8578 142.681 76.1346 143.313 74.851C142.597 73.8057 141.973 72.681 141.455 71.487C140.308 71.9186 141.458 71.4768 140.295 71.9212C140.934 73.4357 141.74 74.8398 142.674 76.1244ZM158.672 42.3701C147.224 42.3701 137.947 51.6498 137.947 63.0961C137.947 65.1293 138.25 67.089 138.798 68.9462C139.11 68.9462 139.272 68.942 139.388 68.9334C140.14 68.877 139.746 68.9017 140.163 68.8795C139.655 67.1497 139.294 64.9866 139.294 63.0953C139.294 52.4114 147.988 43.7188 158.671 43.7188C169.354 43.7188 178.048 52.4114 178.048 63.0953C178.048 73.7784 169.354 82.471 158.671 82.471C157.005 82.471 155.269 82.2394 153.734 81.8377C154.318 83.3317 153.737 81.8446 154.318 83.3385C155.754 83.6641 157.136 83.8205 158.672 83.8205C170.118 83.8205 179.397 74.5416 179.397 63.0953C179.397 51.649 170.117 42.3701 158.672 42.3701ZM160.831 63.1381C161.142 63.1825 161.159 62.8176 161.019 62.6219C160.999 62.6176 160.989 62.6381 160.985 62.6219C160.962 62.5458 160.845 62.3048 160.735 62.3903C160.828 62.3954 160.752 62.6107 160.712 62.6979C160.765 62.8492 160.735 63.0244 160.831 63.1381ZM165.283 50.2919H165.282L165.283 50.2935C165.283 50.2918 165.283 50.2919 165.283 50.2919ZM165.324 50.3354L165.325 50.3337C165.315 50.3166 165.299 50.3055 165.283 50.2935C165.278 50.3252 165.292 50.3388 165.324 50.3354ZM155.487 67.5549C155.563 67.3361 155.368 66.725 155.345 66.7318C155.327 66.7857 155.259 66.9532 155.256 67.0173C155.212 67.0386 155.072 67.2079 155.049 67.2258C155.072 67.2779 155.035 67.2933 155.005 67.2805C154.969 67.3309 154.918 67.3942 154.909 67.3907C154.857 67.4284 154.809 67.4788 154.765 67.489C154.739 67.5044 154.658 67.5522 154.625 67.5659C154.622 67.5522 154.625 67.5343 154.625 67.5343C154.587 67.5796 154.522 67.5882 154.462 67.5993C154.488 67.7189 154.388 67.7745 154.362 67.8727C154.418 68.1368 154.474 68.3855 154.318 68.5992C154.305 68.6145 154.268 68.606 154.253 68.6206C154.178 68.765 154.195 68.9231 154.275 69.0607C154.191 69.2838 154.357 69.4377 154.515 69.4898C154.611 69.4402 154.72 69.4026 154.832 69.3684C155.005 68.8607 155.238 68.3565 155.333 67.8078C155.356 67.7848 155.346 67.7249 155.399 67.7309C155.456 67.6411 155.333 67.5189 155.431 67.4454C155.43 67.5018 155.45 67.5378 155.487 67.5549ZM149.311 49.0833C149.348 49.0833 149.379 49.0885 149.398 49.1039C149.384 49.1056 149.358 49.0996 149.356 49.115C149.407 49.1449 149.505 49.1261 149.565 49.1492C149.549 49.15 149.531 49.1466 149.531 49.1594C149.768 49.1919 150.132 49.262 150.36 49.1047C150.191 49.0355 150.039 49.0535 149.892 49.0603C149.904 49.0586 149.922 49.0637 149.922 49.0491C149.905 49.0081 149.832 49.0346 149.801 49.0491C149.842 49.0466 149.815 49.0919 149.815 49.0936C149.731 49.0491 149.605 49.0475 149.498 49.0278C149.481 49.0672 149.535 49.0355 149.531 49.0603C149.489 49.0705 149.456 49.0159 149.442 49.0603C149.458 49.0586 149.502 49.0782 149.474 49.0833C149.444 49.0663 149.342 49.0637 149.311 49.0833ZM173.094 65.4456C172.97 65.4635 172.92 65.431 172.82 65.4344V65.5002C172.875 65.5113 172.927 65.5267 172.943 65.5763C172.974 65.5797 172.974 65.5524 173.008 65.5558C173.095 65.6832 173.372 65.5378 173.388 65.4566C173.451 65.472 173.451 65.4516 173.498 65.4353C173.51 65.3832 173.465 65.3883 173.477 65.3371C173.552 65.3807 173.552 65.261 173.564 65.2037C173.536 65.2114 173.526 65.2003 173.532 65.1721C173.492 65.1653 173.499 65.2055 173.466 65.2037C173.466 65.1721 173.429 65.1773 173.402 65.1721C173.392 65.2379 173.432 65.2558 173.422 65.3259C173.326 65.3105 173.317 65.3875 173.28 65.4362C173.237 65.4422 173.212 65.4216 173.149 65.4472C173.122 65.4165 173.145 65.3703 173.162 65.3481C173.107 65.3216 173.127 65.4404 173.094 65.4456ZM166.854 66.1062C166.851 66.0677 166.791 66.031 166.831 65.984C166.868 66.0421 166.964 66.0711 166.952 66.1156C166.975 66.0788 167.005 66.0506 167.052 66.0387C167.055 65.9788 166.998 65.9806 166.975 65.9498C166.928 65.984 166.885 65.9814 166.831 65.9498C166.831 65.9301 166.845 65.9258 166.845 65.9062C166.775 65.8147 166.611 65.954 166.547 65.8395C166.556 65.8216 166.554 65.7942 166.57 65.7857C166.664 65.7942 166.737 65.7891 166.788 65.719C166.723 65.7173 166.572 65.6994 166.527 65.7524C166.47 65.6986 166.36 65.6806 166.265 65.6755C166.258 65.649 166.254 65.6182 166.221 65.6207C166.156 65.6207 166.186 65.7182 166.132 65.731C166.041 65.7045 165.929 65.7096 165.829 65.6968C165.818 65.6506 165.792 65.6242 165.772 65.5875C165.687 65.6276 165.642 65.5438 165.545 65.5225C165.527 65.584 165.384 65.5328 165.37 65.5106C165.328 65.5892 165.315 65.6455 165.261 65.6968C165.265 65.6523 165.238 65.6917 165.218 65.6866C165.274 65.749 165.389 65.6874 165.445 65.7524C165.441 65.7789 165.408 65.772 165.415 65.8071C165.916 65.9447 166.374 65.9694 166.854 66.1062ZM170.693 72.8306C170.713 72.7092 170.847 72.6494 170.823 72.5229C170.662 72.6015 170.436 72.6263 170.322 72.5229C170.379 72.5126 170.284 72.505 170.322 72.4691C170.277 72.4639 170.316 72.5041 170.312 72.5229C170.175 72.6032 170.145 72.94 170.158 73.0836C170.209 73.0767 170.242 73.087 170.269 73.1049C170.317 73.093 170.333 73.0485 170.365 73.0169C170.379 73.0579 170.342 73.0528 170.332 73.0716C170.405 73.1109 170.368 72.9878 170.421 73.0271C170.429 72.9348 170.445 73.0083 170.486 72.9502C170.499 72.9536 170.509 72.9647 170.509 72.9835C170.492 72.9835 170.498 72.9639 170.486 72.9613C170.463 72.9869 170.475 72.9904 170.466 73.0161H170.52C170.515 72.9716 170.567 72.9818 170.553 72.928C170.574 72.9143 170.593 72.9331 170.607 72.8946C170.589 72.8912 170.58 72.9117 170.574 72.8946C170.626 72.8767 170.626 72.8057 170.684 72.7963C170.69 72.822 170.653 72.8331 170.693 72.8306ZM173.061 69.3035C173.047 69.3539 173.01 69.4 172.973 69.4573C172.973 69.394 172.907 69.4017 172.93 69.3145C172.86 69.306 172.883 69.1991 172.843 69.1598C172.809 69.1675 172.823 69.1675 172.788 69.1598C172.768 69.1188 172.773 69.1205 172.776 69.0615C172.736 69.0427 172.759 69.0676 172.722 69.0727C172.691 68.9838 172.799 68.8487 172.701 68.8085C172.709 68.8479 172.703 68.8351 172.713 68.8744C172.686 68.8487 172.643 68.8419 172.646 68.7863C172.616 68.7872 172.609 68.8061 172.625 68.7744C172.576 68.7608 172.626 68.8487 172.593 68.853C172.543 68.8231 172.539 68.7128 172.57 68.6658C172.542 68.5958 172.503 68.5343 172.473 68.4676C172.493 68.4497 172.487 68.4676 172.517 68.4676C172.514 68.4172 172.467 68.3368 172.428 68.3898C172.421 68.3428 172.338 68.2719 172.332 68.3241C172.312 68.2959 172.323 68.2369 172.3 68.2138C172.31 68.2522 172.265 68.2317 172.244 68.236C172.244 68.2198 172.247 68.195 172.233 68.1916C172.216 68.1984 172.153 68.2027 172.123 68.1147C172.143 68.0796 172.174 68.0275 172.135 67.9942C172.133 68.0027 172.098 68.0274 172.103 68.0061C172.167 67.9334 172.121 67.7941 172.147 67.7309C172.022 67.6736 172.089 67.4317 172.103 67.3351C172.062 67.2924 171.986 67.283 171.993 67.1916C171.95 67.1719 171.913 67.2412 171.863 67.2464C171.813 67.1635 171.837 67.0216 171.851 66.9173C171.827 66.8908 171.76 66.7874 171.82 66.7404C171.813 66.7216 171.768 66.7421 171.763 66.719C171.783 66.6147 171.744 66.5301 171.732 66.4874C171.686 66.4874 171.688 66.5318 171.644 66.5318C171.643 66.6857 171.55 66.7437 171.513 66.8625C171.539 66.8591 171.555 66.8643 171.558 66.8839C171.386 67.1745 171.486 67.7633 171.089 67.8958C171.049 67.8437 170.945 67.8565 170.957 67.7522C170.809 67.7121 170.726 67.6035 170.619 67.5215C170.649 67.5215 170.649 67.4668 170.619 67.4668C170.622 67.4967 170.605 67.5685 170.565 67.5112C170.582 67.5061 170.628 67.4497 170.598 67.4668C170.588 67.483 170.57 67.4899 170.544 67.4882C170.492 67.4343 170.442 67.3779 170.38 67.3343C170.415 67.2241 170.505 67.1258 170.556 67.0925C170.536 67.0643 170.509 67.1095 170.489 67.0813C170.492 67.0087 170.517 67.0002 170.587 66.9822C170.586 66.9959 170.569 67.007 170.587 67.0156C170.609 66.9925 170.619 66.9591 170.642 66.9386C170.628 66.9335 170.619 66.9241 170.619 66.9053C170.652 66.9104 170.694 66.8438 170.708 66.795C170.673 66.7916 170.626 66.7626 170.653 66.7301C170.616 66.7558 170.597 66.7301 170.566 66.7626C170.606 66.7592 170.559 66.7968 170.599 66.807C170.584 66.8352 170.576 66.8412 170.545 66.8284C170.558 66.8079 170.55 66.772 170.545 66.7626C170.533 66.7703 170.503 66.8139 170.49 66.784C170.52 66.7447 170.557 66.7164 170.557 66.6745C170.516 66.7327 170.448 66.7634 170.381 66.795C170.373 66.772 170.339 66.772 170.336 66.7404C170.282 66.7652 170.179 66.731 170.196 66.6857C170.114 66.731 170.054 66.6737 170.021 66.6087C170.012 66.6258 170.005 66.6438 169.979 66.6421C169.949 66.6241 170.002 66.5669 169.965 66.5438C169.955 66.6293 169.851 66.5369 169.825 66.6087C169.851 66.6104 169.865 66.6258 169.867 66.6532C169.893 66.6497 169.909 66.6353 169.945 66.6421C170.009 66.7583 169.88 66.8139 169.758 66.807C169.728 66.8036 169.733 66.7652 169.715 66.7524C169.723 66.8028 169.698 66.7771 169.671 66.7737C169.688 66.8301 169.617 66.8369 169.594 66.8181C169.587 66.9001 169.431 66.9378 169.517 67.0156C169.484 67.0387 169.461 67.0472 169.43 67.0489C169.427 67.142 169.341 67.1566 169.322 67.2352C169.353 67.248 169.363 67.2796 169.376 67.3129C169.346 67.3078 169.366 67.3531 169.343 67.3565C169.336 67.3317 169.31 67.324 169.289 67.3129C169.282 67.3309 169.301 67.3771 169.275 67.3779C169.284 67.301 169.205 67.3113 169.145 67.301C169.139 67.3173 169.159 67.3574 169.135 67.3557C169.134 67.342 169.132 67.3292 169.114 67.3343C169.102 67.3523 169.114 67.3925 169.081 67.3891C169.084 67.3446 169.11 67.3232 169.126 67.2899C169.046 67.2309 169.016 67.1224 168.905 67.0925C168.872 67.1104 168.888 67.1779 168.842 67.1814C168.839 67.1617 168.842 67.1463 168.852 67.1369C168.814 67.1386 168.804 67.1677 168.786 67.1908C168.786 67.1625 168.793 67.1258 168.766 67.1241C168.74 67.1745 168.771 67.2352 168.711 67.2686C168.687 67.2276 168.713 67.201 168.668 67.1908C168.687 67.2839 168.596 67.2429 168.579 67.2454C168.605 67.2984 168.565 67.3198 168.612 67.3771C168.589 67.3574 168.556 67.3463 168.525 67.3335C168.569 67.3762 168.492 67.3634 168.525 67.4215C168.485 67.3822 168.485 67.4343 168.448 67.4001C168.438 67.4694 168.392 67.5147 168.448 67.5642C168.405 67.5523 168.418 67.6087 168.381 67.6309C168.364 67.5916 168.338 67.5959 168.306 67.6181C168.31 67.5907 168.303 67.5719 168.275 67.5753C168.264 67.6146 168.258 67.6275 168.263 67.6523C168.247 67.6395 168.236 67.6394 168.231 67.6634C168.256 67.6693 168.258 67.7172 168.296 67.7394C168.271 67.7565 168.275 67.7625 168.241 67.7514C168.243 67.7864 168.241 67.818 168.22 67.8283C168.187 67.7796 168.158 67.6847 168.165 67.6317C168.088 67.7087 167.911 67.8121 167.992 67.972C167.818 68.1215 167.688 68.4138 167.369 68.3463C167.287 68.4121 167.118 68.5018 167.02 68.4778C166.987 68.4719 166.976 68.4933 166.953 68.4984C166.953 68.4821 166.96 68.4744 166.965 68.4658C166.776 68.5752 166.559 68.7154 166.431 68.8513C166.447 68.8223 166.44 68.771 166.449 68.7377C166.312 68.948 166.169 69.2547 166.323 69.5419C166.293 69.5675 166.312 69.6427 166.268 69.6521C166.25 69.6308 166.27 69.5701 166.247 69.5539C166.255 69.5752 166.229 69.6137 166.225 69.5863C166.247 69.5436 166.234 69.4881 166.204 69.465C166.153 69.5137 166.211 69.5982 166.235 69.641C166.23 69.6641 166.216 69.6786 166.192 69.6854C166.187 69.6136 166.153 69.5701 166.132 69.5145C166.232 69.9231 166.321 70.482 166.192 70.8828C166.18 70.9896 166.147 71.0717 166.062 71.1033C166.052 71.0922 166.041 71.082 166.03 71.07C166.012 71.1265 165.976 71.1649 165.985 71.246C166.123 71.3153 166.241 71.4392 166.421 71.3888C166.629 71.2854 166.86 71.1016 167.186 71.1469C167.193 71.1709 167.156 71.1819 167.196 71.1802C167.236 71.1657 167.345 71.1255 167.371 71.1802C167.732 70.823 168.317 70.7794 168.888 70.664C168.95 70.6914 168.988 70.7461 169.04 70.7854C169.058 70.7666 169.089 70.7623 169.129 70.7641C169.14 70.8179 169.219 70.8358 169.259 70.7973C169.249 70.8264 169.279 70.8187 169.279 70.8409C169.279 70.8623 169.249 70.8546 169.259 70.8846C169.291 70.888 169.313 70.8418 169.324 70.8846C169.289 70.9367 169.256 70.9477 169.279 71.0161C169.382 70.999 169.386 71.205 169.345 71.2913C169.347 71.2614 169.328 71.2528 169.312 71.2699C169.319 71.3101 169.367 71.3102 169.356 71.3683C169.386 71.3769 169.379 71.3469 169.401 71.3469C169.404 71.3991 169.433 71.3572 169.456 71.3905C169.429 71.3555 169.445 71.3452 169.433 71.3017C169.604 71.1598 169.783 71.0913 169.923 70.9178C169.885 71.1135 169.713 71.1734 169.663 71.358H169.586C169.577 71.3939 169.545 71.4068 169.531 71.435C169.596 71.4324 169.634 71.3905 169.694 71.4136C169.746 71.3521 169.781 71.2734 169.836 71.2161C169.896 71.3614 169.786 71.4358 169.716 71.5135C169.779 71.5255 169.799 71.4939 169.847 71.4913C169.964 71.5605 169.899 71.7579 169.835 71.8306C169.872 71.8725 169.86 71.9588 169.902 71.9955C169.984 71.975 169.984 72.0375 170.021 72.0631C170.206 72.093 170.455 72.1844 170.545 71.9955C170.58 71.9913 170.59 71.9605 170.632 71.9622C170.637 72.0204 170.586 72.0673 170.545 72.0391C170.543 72.0605 170.557 72.0639 170.557 72.0844C170.609 72.0631 170.674 72.0896 170.686 72.1614C170.723 72.1418 170.737 72.1545 170.73 72.2049C170.767 72.2015 170.774 72.1682 170.785 72.14C170.76 72.1332 170.75 72.1716 170.753 72.1289C170.77 72.0947 170.793 72.1699 170.816 72.1289C170.946 72.0861 171.04 71.9614 171.221 71.9417C171.271 71.9357 171.327 71.9545 171.384 71.9417C171.634 71.8879 171.65 71.4161 171.874 71.4033C172.232 70.9324 172.843 70.4871 172.955 69.8427C172.916 69.8342 172.937 69.8897 172.911 69.8974C172.856 69.7829 173.006 69.6573 172.966 69.5231C173.012 69.465 173.096 69.3795 173.061 69.3035ZM167.595 59.9185C167.628 59.7946 167.699 59.4417 167.672 59.293C167.375 59.187 167.365 59.851 167.595 59.9185ZM163.385 49.6978C163.448 49.8243 163.671 49.8739 163.896 49.8962C163.913 49.8714 163.87 49.8543 163.896 49.8517C164.059 49.8355 164.302 49.926 164.42 49.7961C164.429 49.7671 164.37 49.8047 164.377 49.7739C164.37 49.7448 164.429 49.7824 164.42 49.7525C164.22 49.7072 163.993 49.6961 163.806 49.6671C163.819 49.6705 163.776 49.6739 163.777 49.6876C163.806 49.7073 163.836 49.7243 163.865 49.7414C163.701 49.7218 163.488 49.5859 163.385 49.6978ZM168.129 53.6651C168.553 54.095 168.887 54.6164 169.231 55.1258C169.246 55.054 169.182 55.0121 169.211 54.9625C169.308 54.9813 169.387 55.0188 169.428 55.094C169.318 54.8368 168.969 54.824 168.961 54.4677C169.076 54.4087 169.204 54.548 169.275 54.5668C169.098 54.43 168.81 54.1642 168.632 54.0061C168.569 53.9497 168.42 53.6899 168.427 53.7531C168.358 53.6856 168.253 53.5634 168.11 53.4669C168.127 53.5113 168.063 53.4719 168.066 53.5001C168.156 53.5181 168.201 53.5822 168.229 53.6651C168.192 53.6488 168.157 53.6112 168.129 53.6651ZM167.946 60.61C167.944 60.6305 167.937 60.6468 167.922 60.6545C167.822 60.6391 167.772 60.5587 167.672 60.5997C167.644 60.7698 167.709 60.9783 167.692 61.1057C167.645 61.1023 167.643 61.0535 167.606 61.0398C167.591 61.1672 167.671 61.2244 167.692 61.3697C167.715 61.3731 167.715 61.3543 167.725 61.3475C167.728 61.3971 167.742 61.4347 167.792 61.4364C167.817 61.4099 167.772 61.3997 167.78 61.3578C167.815 61.3715 167.86 61.3732 167.857 61.4245C167.823 61.4279 167.827 61.4671 167.792 61.468C167.799 61.5048 167.799 61.5483 167.825 61.5663C167.823 61.5483 167.832 61.5398 167.845 61.5347C167.845 61.5945 167.895 61.5484 167.892 61.5997C167.925 61.6065 167.94 61.5929 167.965 61.5894C167.969 61.5723 167.962 61.5475 167.977 61.5441C168.072 61.5244 168.122 61.6356 168.186 61.6877C168.205 61.639 168.139 61.5954 168.14 61.5338C168.195 61.5971 168.275 61.6031 168.294 61.721C168.384 61.7133 168.386 61.7953 168.446 61.8193C168.463 61.7791 168.457 61.7227 168.446 61.6971C168.427 61.7287 168.398 61.657 168.38 61.7091C168.406 61.6459 168.35 61.6304 168.326 61.5885C168.34 61.5723 168.373 61.5766 168.403 61.5766C168.381 61.5287 168.306 61.5348 168.273 61.4997C168.243 61.5279 168.285 61.533 168.283 61.5646H168.24C168.266 61.4527 168.119 61.4228 168.076 61.4775C168.073 61.5091 168.12 61.5176 168.076 61.5322C167.941 61.4698 168.001 61.345 167.913 61.2467C167.927 61.2202 167.967 61.1663 167.923 61.1475C167.927 61.1185 168.015 61.0569 167.99 61.1031C168.126 60.962 167.956 60.7382 167.946 60.61ZM168.48 57.6426C168.513 57.6897 168.543 57.7384 168.576 57.7854C168.59 57.77 168.587 57.7366 168.622 57.7418C168.632 57.7913 168.623 57.7717 168.61 57.8084C168.613 57.8341 168.622 57.8555 168.643 57.8632C168.681 57.8196 168.623 57.7896 168.664 57.7409C168.647 57.7161 168.619 57.7298 168.61 57.7195C168.653 57.7067 168.568 57.6768 168.61 57.6649C168.664 57.6965 168.673 57.7597 168.708 57.7854C168.636 57.8922 168.746 57.9538 168.708 58.0281C168.741 58.0461 168.776 58.0623 168.816 58.0726C168.823 58.023 168.766 58.0341 168.773 57.9837C168.823 57.9965 168.823 58.0572 168.84 58.105C168.869 58.0725 168.91 58.0538 168.871 58.0059C168.893 58.0127 168.906 58.0375 168.926 58.0178C168.912 57.9409 168.879 57.7905 168.926 57.7101C168.904 57.6956 168.863 57.6674 168.882 57.6435H168.805C168.816 57.6247 168.835 57.6153 168.827 57.5776C168.805 57.5776 168.811 57.5478 168.781 57.5572C168.738 57.6119 168.668 57.541 168.663 57.4905C168.728 57.5222 168.845 57.4751 168.869 57.5452C168.883 57.5016 168.836 57.4623 168.869 57.4349C168.968 57.4922 169.023 57.3837 169.11 57.4136C169.143 57.3188 169.311 57.3521 169.36 57.3914C169.345 57.4094 169.33 57.4273 169.316 57.4469C169.362 57.5213 169.41 57.5948 169.512 57.6102C169.522 57.5461 169.544 57.5033 169.545 57.4563C169.586 57.4461 169.575 57.4333 169.622 57.4461C169.633 57.376 169.552 57.3974 169.535 57.3572C169.535 57.3264 169.525 57.282 169.555 57.2803C169.562 57.4085 169.609 57.3042 169.655 57.3572C169.635 57.3564 169.627 57.3658 169.622 57.3794C169.678 57.37 169.763 57.3572 169.818 57.3794C169.822 57.3034 169.822 57.2598 169.881 57.2803C169.858 57.3102 169.898 57.3452 169.904 57.3794C169.938 57.3803 169.941 57.3513 169.948 57.3248C169.95 57.2906 169.913 57.2922 169.927 57.2469C169.927 57.2469 169.939 57.2384 169.948 57.2349C169.988 57.2144 170.006 57.3025 170.013 57.2469C169.992 57.2452 169.976 57.1837 170.001 57.17C170.027 57.1666 170.043 57.1726 170.045 57.1923C169.991 57.2128 170.034 57.2862 170.068 57.3136C170.081 57.2828 170.122 57.2786 170.134 57.2469C170.091 57.2102 170.121 57.1581 170.164 57.1478C170.004 57.0453 170.064 56.7829 169.947 56.6316C169.947 56.6316 169.961 56.6231 169.97 56.6214C170.004 56.612 170.004 56.6393 170.024 56.6427C170.038 56.3487 169.81 56.2504 169.686 56.0171C169.631 56.0257 169.616 55.9923 169.577 55.9837C169.572 56.0213 169.581 56.0453 169.587 56.0718C169.617 56.0701 169.634 56.0521 169.664 56.0504C169.673 56.0709 169.682 56.0915 169.686 56.1162C169.64 56.0983 169.624 56.083 169.621 56.1274C169.594 56.0881 169.57 56.0462 169.51 56.0393C169.504 56.0898 169.552 56.0863 169.544 56.1376C169.527 56.1393 169.507 56.1359 169.51 56.159C169.517 56.2111 169.626 56.265 169.544 56.3026C169.709 56.3376 169.649 56.5264 169.686 56.6649C169.672 56.6965 169.639 56.7068 169.621 56.7316C169.668 56.858 169.507 56.8632 169.467 56.9401C169.41 56.9401 169.41 56.8837 169.377 56.8581C169.404 56.8684 169.431 56.8034 169.414 56.7863C169.372 56.7846 169.36 56.8128 169.327 56.8188C169.427 56.9273 169.28 57.0512 169.358 57.1478C169.34 57.1991 169.287 57.182 169.25 57.1931C169.236 57.1786 169.238 57.1521 169.227 57.1384C169.092 57.2154 168.906 57.1589 168.813 57.2145C168.796 57.2897 168.722 57.4195 168.617 57.4127C168.621 57.4529 168.629 57.488 168.649 57.5119C168.595 57.5008 168.572 57.523 168.586 57.5768C168.528 57.5426 168.569 57.6264 168.509 57.588C168.534 57.6384 168.47 57.6033 168.48 57.6426ZM159.196 49.2911C159.082 49.2671 158.903 49.1654 158.791 49.2585C158.795 49.2124 158.778 49.215 158.791 49.1808C158.708 49.1646 158.665 49.1808 158.606 49.192C158.578 49.2672 158.611 49.3039 158.585 49.3791C158.774 49.3535 159.042 49.3859 159.196 49.2911ZM165.971 64.5123C165.989 64.5388 166.026 64.4892 166.036 64.5336C165.988 64.5174 166.006 64.5704 166.003 64.5995C166.043 64.5969 166.05 64.5585 166.09 64.555C166.12 64.6114 166.113 64.6619 166.08 64.7098C166.145 64.7525 166.115 64.8456 166.134 64.9404C166.169 64.9464 166.159 64.9063 166.2 64.9191C166.237 64.9986 166.364 64.9285 166.407 64.908C166.4 64.9746 166.424 65.002 166.407 65.0507C166.447 65.0669 166.488 64.9652 166.547 65.0285C166.584 65.0054 166.624 64.9883 166.637 64.9404C166.657 64.9951 166.7 64.9883 166.734 64.9849C166.741 65.0199 166.714 65.0191 166.734 65.0396C166.779 65.0456 166.782 65.008 166.83 65.0166C166.897 65.0294 166.907 65.0969 166.897 65.1824C166.981 65.143 167.064 65.1012 167.147 65.061C167.146 65.1063 167.165 65.1132 167.147 65.1499C167.214 65.1679 167.188 65.0481 167.224 65.0729C167.228 65.0063 167.205 65.0217 167.181 64.9738C167.226 64.9789 167.181 64.9465 167.181 64.9294C167.204 64.9507 167.202 64.9243 167.224 64.9183C167.224 64.8892 167.228 64.8558 167.214 64.8413C167.242 64.8396 167.234 64.8593 167.258 64.8413C167.249 64.8071 167.276 64.8088 167.268 64.7755C167.241 64.761 167.235 64.7807 167.224 64.7636C167.241 64.7542 167.247 64.7362 167.246 64.7098C167.234 64.6781 167.211 64.7021 167.202 64.6875C167.3 64.6405 167.33 64.5234 167.454 64.5004C167.402 64.397 167.428 64.185 167.529 64.1491C167.559 64.1782 167.708 64.1995 167.691 64.1166C167.612 64.0644 167.534 64.0114 167.484 63.9294C167.499 63.9055 167.528 63.8978 167.529 63.8627C167.487 63.8183 167.44 63.7679 167.442 63.7098C167.407 63.7149 167.397 63.6952 167.388 63.6756C167.407 63.6756 167.394 63.6397 167.421 63.6439C167.414 63.6773 167.435 63.6969 167.454 63.6756C167.454 63.6328 167.4 63.6397 167.388 63.6107C167.417 63.6107 167.449 63.6149 167.464 63.5987C167.44 63.5388 167.447 63.5389 167.484 63.5004C167.484 63.4705 167.424 63.497 167.43 63.4568C167.484 63.5012 167.53 63.4705 167.605 63.4568C167.611 63.4081 167.57 63.4337 167.593 63.391C167.545 63.4004 167.527 63.3781 167.517 63.3465C167.567 63.314 167.697 63.3781 167.713 63.2482C167.603 63.2551 167.57 63.1201 167.473 63.1825C167.506 63.1637 167.508 63.1483 167.483 63.1167C167.45 63.1116 167.46 63.15 167.42 63.1381C167.43 63.0594 167.42 63.0432 167.387 62.9731C167.32 63.0278 167.37 62.9329 167.31 62.9295C167.293 62.9458 167.28 63.021 167.256 62.9953C167.276 62.9859 167.271 62.9132 167.244 62.9175C167.195 63.0491 167.142 63.1209 167.081 63.2243C167.077 63.2098 167.056 63.2123 167.049 63.2038C167.054 63.2431 167.009 63.2303 167.016 63.2696C167.029 63.2799 167.049 63.2885 167.059 63.3038C167.033 63.3526 167.005 63.3371 166.961 63.3585C166.949 63.338 166.994 63.3209 166.961 63.3141C166.903 63.35 166.851 63.4252 166.776 63.4115C166.752 63.6525 166.504 63.7722 166.318 63.7748C166.311 63.8107 166.325 63.826 166.329 63.8517C166.299 63.8628 166.299 64.0064 166.275 64.038C166.271 63.9978 166.159 64.0303 166.198 63.9842C166.147 63.9833 166.044 64.0192 166.044 63.9175C166.012 63.9158 166.011 63.9423 165.979 63.9405C165.865 64.1311 165.916 64.3448 165.989 64.4662C165.959 64.4567 165.973 64.4918 165.971 64.5123ZM165.731 60.3024C165.713 60.3408 165.679 60.3271 165.654 60.3356C165.663 60.4194 165.579 60.4058 165.567 60.4673C165.584 60.5297 165.59 60.5357 165.599 60.61C165.655 60.6416 165.723 60.6612 165.795 60.6757C165.792 60.6287 165.822 60.6339 165.849 60.6433C165.916 60.5826 165.911 60.4493 165.981 60.3689C165.947 60.227 165.823 60.3442 165.731 60.3024ZM165.229 65.5011C165.227 65.4686 165.232 65.4456 165.25 65.4353C165.27 65.4704 165.292 65.5037 165.327 65.5242C165.388 65.2926 165.329 65.1199 165.402 64.9404C165.362 64.9165 165.334 64.8781 165.327 64.8191C165.285 64.8046 165.229 64.8088 165.185 64.7977C165.195 64.7849 165.2 64.7695 165.195 64.743C165.165 64.7413 165.155 64.7285 165.132 64.6994C165.155 64.6627 165.112 64.6021 165.118 64.5448C165.022 64.5414 164.975 64.5371 164.935 64.467C164.943 64.4439 164.975 64.4439 164.978 64.4132C164.965 64.4114 164.947 64.4149 164.945 64.4021C164.962 64.4004 164.955 64.3756 164.955 64.3585C164.982 64.3482 165.015 64.3516 165.022 64.3251C165.008 64.2789 164.98 64.2499 164.945 64.226C164.905 64.208 164.894 64.2781 164.88 64.2482C164.794 64.1969 164.728 64.0354 164.595 63.9961C164.571 63.9439 164.565 63.8739 164.488 63.8739C164.458 63.8653 164.495 63.926 164.465 63.9175C164.419 63.891 164.398 63.8405 164.377 63.7858C164.348 63.7858 164.356 63.8038 164.334 63.7858C164.283 63.632 164.113 63.5986 164.018 63.4884C164.005 63.2431 163.638 63.2697 163.472 63.215C163.502 63.5517 163.871 63.5456 163.919 63.8627C164.001 63.8978 164.075 63.9431 164.126 64.0064C164.096 64.0636 164.189 64.1713 164.181 64.2807C164.489 64.4465 164.419 64.8892 164.715 65.0729C164.813 65.2686 165.014 65.3635 165.141 65.5336C165.158 65.49 165.099 65.4669 165.13 65.4456C165.16 65.4669 165.185 65.4951 165.229 65.5011ZM172.169 65.0943C171.956 65.0567 171.722 64.8918 171.511 64.8525C171.52 64.8491 171.525 64.8431 171.525 64.8311C171.315 64.8208 171.189 64.702 171.01 64.6328C170.954 64.643 170.927 64.6815 170.88 64.6994C170.875 64.7259 170.898 64.7226 170.891 64.7542C170.836 64.7619 170.81 64.8028 170.751 64.7755C170.691 64.8755 170.657 65.0063 170.498 65.0063C170.465 64.9293 170.448 64.8891 170.421 64.7977C170.418 64.8344 170.416 64.873 170.4 64.8961C170.358 64.8226 170.374 64.708 170.357 64.6875C170.367 64.6576 170.38 64.6328 170.388 64.5995C170.343 64.5679 170.357 64.5182 170.357 64.49C170.216 64.496 170.176 64.4003 170.039 64.4012C169.986 64.4482 169.933 64.4977 169.854 64.49C169.839 64.5054 169.872 64.5721 169.822 64.5789C169.838 64.5217 169.796 64.5234 169.789 64.49C169.763 64.496 169.739 64.5055 169.702 64.5004C169.782 64.6739 169.966 64.5951 170.029 64.7977C170.083 64.7849 170.25 64.7961 170.313 64.7764C170.269 64.7935 170.313 64.7892 170.313 64.8199C170.263 64.8114 170.301 64.837 170.28 64.8421C170.223 64.8567 170.216 64.8199 170.169 64.8199C170.143 64.8387 170.136 64.8798 170.104 64.8969C170.083 64.8644 169.987 64.8687 169.963 64.8969C169.976 64.9003 169.976 64.9148 169.976 64.9302C170.069 64.9071 170.066 65.0191 170.116 65.0071C170.08 65.0242 170.139 65.0337 170.127 65.0619H170.095C170.104 65.1046 170.104 65.1559 170.14 65.1721C170.175 65.1217 170.217 65.2174 170.237 65.1832C170.221 65.1721 170.197 65.1721 170.193 65.1507C170.23 65.1242 170.227 65.0609 170.258 65.0285C170.263 65.1054 170.348 65.1003 170.379 65.1507C170.384 65.0909 170.41 65.1806 170.433 65.1387C170.565 65.3088 170.901 65.2738 171.021 65.4576C171.039 65.5191 171.075 65.6336 171.132 65.7096C171.115 65.7139 171.112 65.7259 171.088 65.7216C171.111 65.778 171.115 65.7917 171.132 65.8319C171.02 65.7704 170.901 65.9439 170.913 66.0404C170.978 66.0225 171.058 66.0225 171.12 66.0284C171.151 65.9532 171.227 65.9909 171.316 65.9738C171.392 66.1661 171.563 66.2019 171.775 66.2156C171.814 66.184 171.865 66.1609 171.915 66.1387C171.922 66.0515 171.856 66.0404 171.807 66.0079C171.859 66.0335 171.896 65.9891 171.959 65.9968C171.933 65.925 171.989 65.9704 172.015 65.9516C172.035 65.9319 172.002 65.9071 172.002 65.8755C172.054 65.9217 172.079 65.878 172.122 65.9079C172.127 65.89 172.105 65.8798 172.122 65.8755C172.283 65.9362 172.446 65.9344 172.462 66.1489C172.604 66.3421 172.709 66.4114 173.007 66.4233C173.01 66.4891 173.096 66.5019 173.161 66.4686C173.166 66.425 173.114 66.4396 173.106 66.4139C173.138 66.4097 173.191 66.4258 173.193 66.3908C173.135 66.3976 173.025 66.3755 173.008 66.3037C173.038 66.3054 173.067 66.3053 173.061 66.2703C172.995 66.2651 172.961 66.2737 172.921 66.2267C172.918 66.1899 172.97 66.1771 172.943 66.1498C172.908 66.125 172.873 66.1695 172.82 66.1609C172.803 65.9422 172.593 65.9156 172.57 65.6994C172.582 65.6994 172.584 65.6909 172.593 65.6892C172.637 65.7097 172.697 65.6951 172.733 65.678C172.714 65.478 172.52 65.5088 172.374 65.425C172.436 65.225 172.221 65.2131 172.169 65.0943ZM143.662 61.3791C143.681 61.4005 143.68 61.374 143.716 61.3791C143.763 61.4509 143.786 61.5441 143.826 61.621C143.789 61.6125 143.777 61.7817 143.769 61.8415C143.826 61.8688 143.862 61.9185 143.89 61.9732C143.96 61.9877 143.975 61.9492 144.021 61.9398C143.99 61.9731 143.992 62.009 144 62.05C144.04 62.0825 144.079 62.1269 144.077 62.1714C144.122 62.1893 144.074 62.1115 144.121 62.1269C144.157 62.3278 144.368 62.3834 144.404 62.556C144.368 62.5441 144.378 62.6031 144.371 62.6441C144.441 62.6885 144.425 62.7611 144.492 62.7987C144.472 62.8038 144.425 62.7833 144.438 62.8201C144.839 62.95 144.982 63.3406 145.385 63.4679C145.615 63.2996 146.07 63.2243 146.357 63.3807C146.531 63.3072 147.616 62.9893 147.656 63.2594C147.613 63.4423 147.877 63.5542 147.982 63.4115C148.022 63.4406 148.077 63.4209 148.178 63.4235C148.184 63.4064 148.194 63.4055 148.21 63.4354C148.243 63.4431 148.294 63.4807 148.287 63.5235C148.315 63.5286 148.337 63.5397 148.354 63.5559C148.389 63.5696 148.362 63.5209 148.397 63.5346C148.461 63.6551 148.378 64.2106 148.343 64.2054C148.351 64.2542 148.371 64.279 148.355 64.2602C148.351 64.3337 148.348 64.4423 148.288 64.491C148.288 64.4713 148.295 64.5525 148.3 64.6225C148.315 64.6482 148.331 64.6028 148.343 64.6328C148.415 64.9669 149.043 65.9063 149.063 66.0943C149.033 66.1054 149.009 66.119 148.998 66.1489C149.063 66.3669 149.273 66.7592 148.986 66.8968C148.883 67.0284 148.89 67.3599 148.769 67.5129C148.713 68.1778 149.237 68.9428 149.226 68.941C149.246 69.2145 149.289 69.4488 149.347 69.677C149.445 70.0923 149.867 70.447 149.837 70.9188C149.819 70.9205 149.804 70.917 149.794 70.9076C149.794 70.9332 149.776 70.9401 149.783 70.9734C149.85 70.9948 149.92 71.193 149.936 71.193V71.2477C149.977 71.24 149.988 71.2623 150.024 71.2589C150.024 71.3512 150.098 71.3136 150.143 71.3478C150.195 71.2538 150.332 71.2461 150.439 71.2589C150.563 71.1375 150.766 71.1836 150.94 71.2153C150.957 71.1589 151.171 71.1298 151.245 71.1264C151.655 70.905 151.918 70.5375 152.171 70.1598C152.343 70.0718 152.382 69.6043 152.368 69.6103C152.358 69.5906 152.341 69.5769 152.336 69.5555C152.435 69.3308 152.829 69.406 152.87 69.1265C152.855 69.1018 152.909 68.7932 152.849 68.7967C152.823 68.6437 152.747 68.3385 152.772 68.3137C152.776 68.3223 152.772 68.3343 152.772 68.3343C152.889 68.289 152.894 68.1463 153.035 68.1386C153.229 67.7343 153.831 67.7719 153.864 67.236C153.847 67.2121 153.838 66.9216 153.843 66.8959C153.754 66.666 153.885 66.5396 153.81 66.4011C153.778 66.4156 153.745 66.3558 153.691 66.3353C153.684 66.1447 153.577 65.9242 153.668 65.72C153.367 65.4806 153.908 64.7995 153.941 64.7858C153.926 64.7824 153.964 64.7319 153.995 64.731C154.409 63.9815 155.281 63.6944 155.479 62.7304C155.574 62.6081 155.657 62.4783 155.654 62.2578C155.743 62.1808 155.64 62.0535 155.708 61.9509C155.508 61.9338 155.302 62.1346 155.034 62.0825C154.876 62.203 154.69 62.1603 154.498 62.2355C154.406 62.1791 154.359 62.0756 154.289 61.9936C154.271 61.997 154.219 62.0218 154.202 61.9936C154.252 61.9739 154.282 61.9338 154.334 61.9167C154.225 61.662 154.001 61.509 153.81 61.3125C153.776 61.3048 153.778 61.3304 153.745 61.3244C153.722 61.2894 153.725 61.227 153.678 61.2142C153.645 61.2355 153.698 61.286 153.668 61.3014C153.536 61.0296 153.514 60.6468 153.244 60.5434C153.19 60.4066 153.174 60.2186 153.177 60.0818C153.181 60.0946 153.176 60.1126 153.188 60.116C153.194 60.0494 153.089 60.0032 153.112 59.8844C153 59.7921 152.847 59.7425 152.862 59.522C152.877 59.516 152.917 59.5357 152.917 59.5101C152.606 59.1776 152.507 58.7101 152.26 58.3674C152.285 58.3631 152.272 58.3196 152.294 58.3136C152.377 58.4819 152.432 58.6776 152.609 58.7528C152.661 58.663 152.629 58.4888 152.709 58.4016C152.684 58.4555 152.695 58.6187 152.653 58.6871C152.67 58.7033 152.709 58.6777 152.753 58.6871C152.917 58.9537 153.103 59.1605 153.198 59.4553C153.583 59.5716 153.383 60.0537 153.635 60.2579C153.903 60.3365 153.874 60.7116 154.093 60.8407V60.8955C154.217 60.9519 154.17 61.1441 154.191 61.2578C154.17 61.2356 154.17 61.2612 154.158 61.28C154.291 61.3723 154.243 61.6501 154.345 61.7852C154.418 61.8236 154.528 61.7552 154.605 61.7732C154.746 61.6091 155.041 61.5749 155.25 61.5099C155.346 61.3091 155.662 61.3245 155.839 61.2031C155.847 61.1578 155.822 61.1476 155.827 61.1048C155.953 60.8732 156.373 61.0185 156.394 60.7424C156.626 60.7757 156.55 60.4579 156.776 60.522C156.734 60.4245 156.727 60.2417 156.82 60.1912C156.821 60.2109 156.818 60.2263 156.81 60.2365C156.834 60.2331 156.851 60.2382 156.863 60.2476C156.895 60.063 157.062 60.0151 157.072 59.8074C156.907 59.5339 156.408 59.5972 156.406 59.1597C156.416 59.1212 156.451 59.0605 156.406 59.028C156.304 59.1485 155.965 59.4784 155.981 59.4895C155.927 59.4699 155.837 59.4887 155.784 59.4673C155.774 59.5126 155.721 59.5126 155.663 59.5109C155.653 59.4921 155.598 59.4545 155.567 59.4459C155.635 59.3724 155.584 59.2503 155.599 59.1374C155.57 59.1195 155.56 59.081 155.522 59.0724C155.443 59.1263 155.467 59.2784 155.467 59.3579C155.437 59.2442 155.36 59.1741 155.315 59.0724C155.33 59.0759 155.333 59.0904 155.348 59.0938C155.403 59.0272 155.271 59.0049 155.336 58.9613C155.273 58.9357 155.241 58.8648 155.184 58.8631C155.186 58.8289 155.169 58.811 155.163 58.7862C155.122 58.7913 155.109 58.7725 155.086 58.7648C155.075 58.6511 155.022 58.3025 155.064 58.2914C155.073 58.2572 155.148 58.2554 155.163 58.3024C155.205 58.3007 155.205 58.2554 155.25 58.2588C155.257 58.3639 155.376 58.3589 155.37 58.4785C155.43 58.4691 155.405 58.4964 155.404 58.5332C155.524 58.7648 155.778 58.8041 155.948 58.9733C156.032 58.9383 156.045 58.9913 156.123 59.0049C156.17 59.0015 156.207 58.9657 156.21 58.9947C156.296 58.9682 156.344 58.975 156.386 58.9067C156.359 58.8691 156.322 58.9443 156.297 58.9067C156.504 58.7691 156.528 59.0639 156.582 59.1597C156.743 59.181 156.99 59.2554 157.138 59.2255C157.183 59.2742 157.345 59.2913 157.345 59.3024C157.446 59.2767 157.8 59.2554 157.857 59.2802C157.898 59.2084 158.051 59.2494 158.131 59.2152C158.181 59.2297 158.208 59.2691 158.196 59.3468C158.241 59.328 158.262 59.3562 158.294 59.357C158.364 59.5878 158.541 59.6374 158.762 59.7648C158.779 59.7408 158.84 59.704 158.872 59.7314C158.852 59.8331 158.745 59.8083 158.686 59.8536C158.691 59.7998 158.668 59.8434 158.655 59.8084C158.683 60.0289 159.109 60.3579 159.232 59.9835C159.229 59.9545 159.199 59.869 159.266 59.863C159.238 59.9083 159.292 59.9272 159.266 59.9733C159.281 59.9947 159.309 59.9544 159.32 59.9946C159.285 59.9895 159.285 60.0177 159.286 60.0494C159.306 60.0707 159.302 60.4065 159.363 60.533C159.372 60.5347 159.383 60.5331 159.385 60.5434C159.456 60.8151 159.486 61.0655 159.625 61.2578C159.76 61.568 159.991 62.074 160.115 62.4551C160.137 62.5278 160.247 62.7047 160.334 62.7081C160.495 62.715 160.438 62.3825 160.672 62.4774C160.645 62.4475 160.59 62.4791 160.575 62.4227C160.607 62.3783 160.617 62.3124 160.65 62.2688C160.684 62.2534 160.689 62.2731 160.739 62.2688C160.706 61.9714 160.783 61.6663 160.739 61.4005C160.721 61.292 160.673 61.1749 160.802 61.1364C160.809 61.1493 160.816 61.1612 160.826 61.1681C160.862 61.1544 160.882 61.1065 160.902 61.0476C160.992 61.0758 161.12 61.0056 161.056 60.9159C161.325 60.7706 161.389 60.4168 161.709 60.3228C161.739 60.2502 161.771 60.2305 161.796 60.1681C161.788 60.1305 161.761 60.11 161.765 60.0588C161.783 59.9707 161.925 60.0074 161.95 59.9279C161.97 59.9476 162.117 59.9938 162.136 59.9929C162.141 59.9579 162.119 59.9493 162.114 59.9279C162.146 59.9331 162.253 59.9972 162.278 59.916C162.296 59.9263 162.293 59.9613 162.332 59.9485C162.346 59.9134 162.354 59.8775 162.386 59.8604C162.393 59.8775 162.372 59.9169 162.398 59.9152C162.46 59.875 162.416 59.7912 162.386 59.7502C162.366 59.7399 162.349 59.7835 162.343 59.7502C162.371 59.7305 162.319 59.6938 162.366 59.6844C162.404 59.7451 162.384 59.7502 162.441 59.7938C162.479 59.7912 162.413 59.7536 162.453 59.7502C162.666 59.8356 162.63 60.1707 162.812 60.2895C162.833 60.2921 162.833 60.2741 162.843 60.2673C162.836 60.2955 162.83 60.3185 162.857 60.333C162.857 60.2988 162.862 60.3015 162.889 60.2997C162.969 60.3331 162.978 60.3749 163.03 60.4433C162.994 60.4792 162.983 60.4253 162.954 60.4219C163.111 60.5604 163.211 60.7997 163.172 61.1245C163.189 61.1048 163.202 61.0808 163.214 61.0586C163.237 61.0791 163.221 61.1108 163.214 61.1356C163.254 61.1425 163.342 61.151 163.368 61.1792C163.412 61.0374 163.645 61.0458 163.599 60.8492C163.772 61.0518 163.795 61.3493 163.902 61.6074C163.906 61.5946 163.902 61.5765 163.912 61.5748C163.956 61.6663 164.031 61.7902 163.979 61.8817C163.995 61.8834 164.004 61.8766 164.012 61.8714C164.009 61.9184 163.995 61.9296 164.002 61.9809C164.02 61.992 164.037 61.9484 164.046 61.9809C164.006 62.2022 163.976 62.4739 163.991 62.7722C164.063 62.7628 163.983 62.668 164.046 62.6509C164.063 62.7312 164.142 62.7013 164.123 62.7825C164.179 62.7765 164.2 62.8534 164.188 62.8816C164.277 62.9261 164.443 63.138 164.349 63.2662C164.359 63.3098 164.389 63.2303 164.393 63.2662C164.389 63.3662 164.47 63.4773 164.448 63.5516C164.571 63.7738 164.756 63.9089 164.971 64.0807C165 64.0012 165.068 64.0636 165.103 64.0584C165.083 63.9251 165.028 63.8251 164.949 63.7516C165.016 63.3602 164.789 63.1517 164.569 62.9381C164.472 62.9842 164.43 62.8842 164.382 62.8833C164.405 62.7372 164.282 62.6073 164.252 62.4543C164.205 62.4483 164.203 62.4868 164.152 62.4765C164.071 62.1979 164.304 61.9091 164.229 61.6296C164.272 61.6219 164.359 61.6005 164.383 61.6415V61.7945C164.436 61.78 164.496 61.8065 164.558 61.7834C164.6 61.827 164.63 61.8799 164.666 61.9261C164.703 61.9193 164.619 61.8902 164.654 61.8817C164.735 61.8782 164.779 62.0253 164.81 62.1475C164.841 62.1381 164.83 62.1381 164.864 62.1475C164.862 62.1193 164.871 62.1005 164.885 62.0928C164.892 62.1142 164.912 62.1227 164.906 62.1577C164.896 62.1731 164.877 62.1791 164.873 62.2013C164.927 62.2346 165.057 62.1748 165.07 62.2902C165.12 62.2731 165.141 62.3005 165.166 62.3338C165.079 62.3577 165.148 62.5526 165.123 62.609C165.263 62.6142 165.233 62.4475 165.375 62.4543C165.393 62.4167 165.338 62.3987 165.363 62.3885C165.38 62.4039 165.403 62.4364 165.429 62.4099C165.433 62.3646 165.423 62.3475 165.473 62.3116C165.483 62.2706 165.436 62.2902 165.429 62.268C165.498 62.2799 165.447 62.2364 165.483 62.2133C165.5 62.227 165.497 62.2586 165.527 62.2569C165.644 62.1988 165.725 62.1056 165.844 62.0484C165.871 61.9629 165.87 61.8484 165.854 61.7723C165.881 61.7715 165.868 61.8064 165.888 61.8064C165.858 61.5381 165.742 61.2587 165.616 61.0818C165.574 61.1202 165.574 61.0014 165.527 61.0596C165.35 60.8784 165.213 60.7159 165.07 60.51C165.093 60.3997 165.096 60.3006 165.2 60.257C165.177 60.1484 165.236 60.1571 165.266 60.1468C165.266 60.1289 165.236 60.1417 165.233 60.1254C165.365 60.01 165.54 59.9605 165.735 60.0271C165.647 60.0861 165.784 60.3562 165.877 60.2237C165.862 60.175 165.812 60.1647 165.8 60.1151C165.984 60.0365 166.106 59.8946 166.347 59.8724C166.357 59.8075 166.436 59.8049 166.465 59.7946C166.482 59.798 166.582 59.7442 166.619 59.7408C166.629 59.7587 166.67 59.7323 166.684 59.7289C166.709 59.7255 166.868 59.6262 166.87 59.5852C166.929 59.6339 166.976 59.4998 167.001 59.4973C167.003 59.5067 167.052 59.4785 167.056 59.4434C167.052 59.4204 167.005 59.4408 167.011 59.41C167.032 59.4135 167.032 59.3946 167.046 59.3887C167.089 59.4143 167.089 59.3673 167.131 59.3887C167.117 59.2835 167.213 59.287 167.208 59.1904C167.223 59.2041 167.288 59.1212 167.252 59.0922C167.217 59.0947 167.183 59.1161 167.164 59.0802C167.317 59.0614 167.336 58.7973 167.34 58.6965C167.396 58.7153 167.37 58.646 167.393 58.6315C167.407 58.6485 167.423 58.5836 167.393 58.5528H167.448C167.453 58.5348 167.431 58.5263 167.448 58.5212C167.453 58.4785 167.41 58.4862 167.393 58.4665C167.434 58.4469 167.422 58.3956 167.415 58.3776C167.42 58.3494 167.366 58.2417 167.294 58.2349C167.252 58.2323 167.254 58.2759 167.207 58.2674C167.205 58.252 167.189 58.2494 167.186 58.2349C167.252 58.205 167.281 58.1332 167.359 58.1136C167.281 58.0153 167.141 57.8819 167 57.9161C167.102 57.8417 167.188 57.9682 167.316 57.9605C167.06 57.7845 166.935 57.423 166.641 57.3238C166.624 57.2358 166.694 57.1529 166.738 57.0922C166.717 57.0973 166.682 57.0632 166.705 57.0589C166.736 57.0273 166.722 57.0991 166.771 57.0803C166.761 57.029 166.835 57 166.771 56.97C166.908 56.9666 166.911 56.8547 167.022 56.9264C167.01 56.87 167.017 56.8632 167.01 56.8059C166.955 56.8128 166.935 56.7855 166.901 56.7727C166.803 56.8615 166.707 56.6581 166.586 56.7615C166.531 56.9931 166.367 56.7307 166.3 56.6521C166.297 56.6649 166.29 56.6769 166.281 56.6846C166.197 56.6624 166.034 56.5957 166.072 56.453C166.165 56.4727 166.188 56.4633 166.269 56.453C166.281 56.4222 166.281 56.3846 166.269 56.3547C166.349 56.2966 166.444 56.2068 166.454 56.1128C166.624 56.0974 166.733 56.2231 166.617 56.3436C166.635 56.382 166.679 56.3915 166.705 56.4214C166.671 56.4291 166.691 56.4496 166.694 56.4761C166.654 56.4838 166.617 56.5009 166.641 56.5419C166.674 56.547 166.677 56.5222 166.716 56.5299C166.734 56.5085 166.714 56.5162 166.716 56.4863C166.796 56.4359 166.996 56.2076 167.152 56.376C167.155 56.3632 167.152 56.3461 167.164 56.3427C167.309 56.3692 167.329 56.5393 167.284 56.6734H167.359C167.361 56.7034 167.342 56.6948 167.359 56.7171C167.413 56.7051 167.413 56.7436 167.448 56.7504C167.473 56.747 167.464 56.7051 167.48 56.6957C167.518 56.7324 167.536 56.7444 167.59 56.7171C167.634 56.7974 167.693 56.8247 167.73 56.8922C167.66 56.8683 167.634 56.8786 167.634 56.9376C167.647 56.9675 167.677 56.9726 167.711 56.9589C167.777 57.0939 167.851 57.3948 167.819 57.4213C167.863 57.4358 168.008 57.3948 168.026 57.4094C168.016 57.3777 168.115 57.341 168.038 57.3111C168.083 57.2983 168.138 57.3059 168.178 57.3315C168.178 57.3033 168.173 57.2674 168.201 57.2657C168.205 57.2888 168.288 57.1589 168.278 57.0785C168.121 56.7965 167.901 56.5811 167.622 56.4196C167.623 56.3991 167.627 56.3522 167.6 56.3419C167.637 56.3239 167.64 56.2718 167.711 56.2881C167.764 56.2402 167.77 56.1419 167.851 56.1231C167.831 56.0607 167.796 56.012 167.764 55.959C167.781 55.8924 167.793 55.8137 167.862 55.8274C167.87 55.7957 167.846 55.7992 167.85 55.7727H167.906C167.893 55.7359 167.913 55.6736 167.926 55.6291C167.951 55.6719 167.966 55.6761 168.013 55.6522C168.02 55.6838 168.027 55.7188 168.058 55.7282C168.564 55.8299 168.503 55.1052 168.604 54.63C168.545 54.3411 168.254 54.1634 168.287 53.8822C168.244 53.8813 168.221 53.8634 168.191 53.8497C168.191 53.7523 168.087 53.7608 168.037 53.7181C168.062 53.7232 168.087 53.7335 168.124 53.7301C167.981 53.6061 167.767 53.4609 167.535 53.4985C167.56 53.5079 167.564 53.5369 167.581 53.5531C167.53 53.5463 167.554 53.5711 167.558 53.5967C167.535 53.6155 167.474 53.6506 167.437 53.619C167.44 53.5933 167.476 53.5985 167.47 53.5643C167.439 53.5404 167.37 53.5549 167.393 53.4762C167.353 53.4694 167.34 53.4899 167.317 53.4976C167.306 53.5387 167.392 53.5395 167.36 53.5635C167.346 53.5635 167.337 53.5694 167.327 53.5745C167.269 53.5326 167.252 53.4463 167.187 53.4096C167.123 53.4574 166.97 53.4198 166.936 53.366C167.12 53.2207 167.078 52.9822 167.22 52.8053C167.21 52.7831 167.187 52.7738 167.187 52.7396C167.239 52.4883 167.577 52.49 167.808 52.5755C167.841 52.5575 167.778 52.5421 167.808 52.5319C167.964 52.5524 168.081 52.5567 168.179 52.5319C168.182 52.5105 168.152 52.4969 168.125 52.4772C168.358 52.4943 168.469 52.4959 168.649 52.5643C168.597 52.5609 168.574 52.584 168.519 52.5763C168.571 52.69 168.731 52.5771 168.801 52.6096C168.773 52.5925 168.869 52.5883 168.813 52.5643C168.906 52.5925 168.993 52.5686 169.074 52.5763C169.058 52.525 168.923 52.4721 168.91 52.5217C168.786 52.4832 168.851 52.2695 168.891 52.2028C168.759 52.0721 169.134 52.0678 169.218 52.1148C169.235 52.1071 169.215 52.0609 169.25 52.0703C169.308 52.1148 169.323 52.202 169.381 52.2473C169.415 52.2524 169.404 52.2122 169.446 52.225C169.455 52.2592 169.476 52.2823 169.49 52.3131C169.515 52.2977 169.545 52.29 169.565 52.2695C169.544 52.2268 169.592 52.1627 169.612 52.1259C169.663 52.1217 169.672 52.1123 169.719 52.1259C169.663 52.0721 169.592 52.0276 169.545 51.9618C169.616 51.9242 169.776 51.9345 169.829 51.9832C169.799 51.9721 169.736 51.9627 169.709 51.9832C169.739 52.0841 169.829 52.1259 169.892 52.1926C169.854 52.2225 169.914 52.2447 169.926 52.2575C169.889 52.2789 169.842 52.2874 169.796 52.3242C169.796 52.4917 169.757 52.6677 169.752 52.7968C169.731 52.7814 169.689 52.7849 169.665 52.7755C169.667 52.8156 169.642 52.8352 169.588 52.8181C169.611 52.8805 169.687 52.8874 169.697 52.9626C169.658 52.9421 169.643 53.0335 169.665 53.0711C169.879 53.4668 170.51 53.7959 170.788 54.1378C170.883 54.0045 170.833 53.8421 170.733 53.7421C170.774 53.7669 170.787 53.6822 170.844 53.6873C170.857 53.6967 170.9 53.7309 170.907 53.7087C170.842 53.6583 170.667 53.5566 170.777 53.4446C170.842 53.4378 170.88 53.4711 170.919 53.4335C170.874 53.3061 170.717 53.2925 170.667 53.1703C170.69 53.1309 170.712 53.1104 170.667 53.0814C170.704 53.0993 170.714 53.0413 170.723 53.0695C170.73 53.1011 170.706 53.0976 170.711 53.1241C170.751 53.1318 170.762 53.1694 170.82 53.1574C170.806 52.9771 170.503 53.042 170.536 52.8506C170.496 52.8207 170.451 52.7968 170.384 52.7959C170.359 52.8122 170.398 52.8225 170.372 52.8293C170.151 52.7635 170.255 52.5131 170.11 52.4114C170.168 52.3986 170.174 52.4344 170.208 52.4438C170.245 52.4413 170.166 52.4096 170.208 52.401C170.258 52.4139 170.273 52.4592 170.338 52.4558C170.345 52.4208 170.31 52.4258 170.308 52.401C170.336 52.3857 170.36 52.3652 170.371 52.3353C170.445 52.3464 170.433 52.443 170.515 52.4438C170.532 52.4259 170.521 52.3789 170.525 52.3455C170.749 52.2524 170.912 52.402 171.08 52.4114C171.062 52.3772 171.019 52.3703 171.005 52.3344C171.086 52.3053 171.04 52.2686 171.124 52.2353C171.134 52.2002 171.089 52.2199 171.092 52.1917C171.145 52.1771 171.149 52.0935 171.256 52.0815C171.242 52.0781 171.239 52.0686 171.233 52.0583C171.294 52.0652 171.329 51.9713 171.429 51.961C171.462 51.9422 171.399 51.9268 171.429 51.9166C171.509 51.9619 171.664 51.9874 171.756 51.9823C171.599 51.7575 171.179 51.6841 170.992 51.5661C171.132 51.6046 171.217 51.5712 171.265 51.4772C171.245 51.4678 171.232 51.4533 171.221 51.4345C171.19 51.4302 171.188 51.4576 171.156 51.455C171.128 51.3926 171.039 51.3892 171.015 51.3234C171.078 51.3345 171.013 51.2823 171.058 51.2789C171.075 51.3105 171.133 51.3037 171.123 51.2789C171.143 51.2892 171.158 51.3037 171.168 51.3234C171.155 51.3259 171.137 51.3217 171.135 51.3345C171.509 51.4225 171.967 51.5695 172.27 51.5986C172.29 51.6157 172.333 51.6644 172.367 51.632C172.32 51.602 172.3 51.5755 172.237 51.5431C172.263 51.5371 172.291 51.5336 172.291 51.4995C172.229 51.4678 172.167 51.4328 172.107 51.4003C172.177 51.4021 172.247 51.461 172.324 51.4226C172.301 51.4021 172.254 51.4046 172.237 51.379C172.273 51.3747 172.324 51.3858 172.345 51.367C172.214 51.2285 171.923 51.1952 171.669 51.1465C171.657 51.1987 171.753 51.1448 171.756 51.1798C171.66 51.2106 171.583 51.0893 171.462 51.1465C171.524 51.1987 171.643 51.1935 171.669 51.2781C170.943 50.8978 170.149 50.7294 169.182 50.6738C169.191 50.6712 169.204 50.6738 169.205 50.6636C169.062 50.6901 168.941 50.6072 168.778 50.6191C168.855 50.72 168.995 50.7602 169.116 50.8166C168.931 50.8859 168.698 50.7363 168.528 50.685C168.224 50.7559 167.83 50.685 167.503 50.685C167.384 50.4816 167.052 50.4619 166.76 50.4764C166.403 50.4927 166.141 50.4516 165.995 50.432C165.947 50.3645 165.81 50.3833 165.723 50.3543C165.741 50.3363 165.771 50.3645 165.811 50.3543C165.719 50.2893 165.403 50.1807 165.329 50.3311C165.329 50.3311 165.331 50.332 165.331 50.3329H165.328C165.324 50.3397 165.323 50.3466 165.319 50.3543C165.265 50.3423 165.214 50.3859 165.211 50.3329C165.265 50.3465 165.276 50.3192 165.286 50.2893C165.123 50.1611 164.694 50.2329 164.447 50.1679C164.455 50.209 164.515 50.1936 164.536 50.2218C164.492 50.2329 164.439 50.2354 164.382 50.2328C164.375 50.285 164.405 50.2986 164.447 50.2995C164.457 50.2756 164.489 50.2738 164.524 50.2773C164.512 50.2995 164.495 50.3158 164.482 50.332C164.545 50.3372 164.578 50.3721 164.622 50.3969C164.527 50.4003 164.465 50.3653 164.405 50.3867C164.388 50.4337 164.435 50.4217 164.447 50.4414C164.408 50.4533 164.378 50.4218 164.317 50.4081C164.362 50.3961 164.392 50.4414 164.392 50.3867C164.343 50.3884 164.262 50.3756 164.273 50.4081C164.213 50.3927 164.165 50.3645 164.088 50.3645C163.974 50.4764 163.741 50.3448 163.65 50.3311C163.647 50.426 163.752 50.4371 163.683 50.5174C163.522 50.4824 163.366 50.4431 163.248 50.3645C163.263 50.3576 163.302 50.3773 163.302 50.3525C163.272 50.3482 163.178 50.2927 163.225 50.3423C163.16 50.3371 163.11 50.3175 163.072 50.2876C163.117 50.2876 163.195 50.3414 163.225 50.2876C163.195 50.2355 163.101 50.2508 163.038 50.232C163.055 50.2192 163.083 50.2175 163.093 50.1987C163.026 50.2004 163.021 50.1953 163.072 50.1773C163.038 50.1696 162.978 50.1918 162.963 50.1662C162.981 50.1662 162.991 50.1568 162.995 50.1439C162.751 50.0551 162.372 50.0389 162.187 50.056C162.213 50.1038 162.299 50.0901 162.297 50.1662C162.127 50.132 161.709 50.1858 161.663 50.067C161.456 50.0576 161.184 49.9936 161.01 50.079C160.965 50.0526 160.908 49.9824 160.858 50.0012C160.872 50.0123 160.898 50.0115 160.902 50.0346C160.842 50.0568 160.691 50.0295 160.695 49.9902C160.641 50.0115 160.496 49.9448 160.498 50.0448C160.535 50.0696 160.598 50.0106 160.638 50.0448C160.505 50.0867 160.385 50.1201 160.181 50.1329C160.178 50.1534 160.197 50.155 160.204 50.1662C160.171 50.1636 160.169 50.1901 160.138 50.1875C160.151 50.1696 160.166 50.15 160.159 50.1107C160.276 50.0782 160.355 50.0081 160.474 49.979C160.485 49.9431 160.438 49.9628 160.443 49.9346C160.544 49.891 160.688 49.8876 160.714 49.7688C160.66 49.7491 160.671 49.7278 160.637 49.6825C160.571 49.7158 160.529 49.6124 160.464 49.6491C160.481 49.6406 160.511 49.6705 160.485 49.6705C160.379 49.5671 159.906 49.5073 159.799 49.5936C159.732 49.5868 159.706 49.6098 159.656 49.5936C159.662 49.5637 159.703 49.5671 159.699 49.5278C159.589 49.5021 159.477 49.5354 159.396 49.4944C159.411 49.4705 159.483 49.5013 159.483 49.462C159.313 49.432 159.109 49.3731 158.98 49.4731C158.994 49.4979 158.956 49.5158 158.949 49.5388C158.996 49.5508 159.015 49.5893 159.057 49.6047C158.966 49.6158 158.856 49.5884 158.795 49.6047C158.815 49.6209 158.856 49.6176 158.872 49.6372C158.812 49.6423 158.718 49.6406 158.709 49.6825C158.635 49.6842 158.598 49.6705 158.521 49.6927C158.535 49.6756 158.535 49.6662 158.521 49.6491C158.371 49.6645 158.244 49.6372 158.162 49.6927C158.204 49.7243 158.222 49.6517 158.238 49.7149C157.966 49.6961 157.754 49.7928 157.595 49.8244C157.612 49.8415 157.656 49.8278 157.65 49.8688C157.601 49.8611 157.658 49.8893 157.627 49.891C157.583 49.891 157.574 49.856 157.53 49.8577C157.533 49.879 157.516 49.8824 157.52 49.9021C157.56 49.9081 157.63 49.8842 157.64 49.9235C157.61 49.9235 157.574 49.9175 157.574 49.9457C157.627 49.979 157.74 49.9534 157.77 50.0115C157.533 50.0397 157.269 50.0432 157.015 50.056C157.035 50.097 157.01 50.0739 157.005 50.1107C157.132 50.2209 157.319 50.2713 157.476 50.3517C157.209 50.3781 157.019 50.1585 156.788 50.2867C156.82 50.3097 156.878 50.3029 156.909 50.3303C156.832 50.3602 156.747 50.2756 156.657 50.3192C156.711 50.4688 156.951 50.3816 157.015 50.4739C156.889 50.4491 156.732 50.455 156.613 50.4192C156.573 50.3593 156.559 50.1217 156.394 50.1875C156.428 50.2132 156.487 50.2115 156.492 50.2636C156.451 50.3311 156.319 50.3106 156.317 50.4192C156.401 50.4636 156.511 50.4807 156.557 50.5619C156.494 50.9661 157.125 50.6576 157.267 50.9354C157.251 50.9584 157.209 50.9568 157.202 50.991C157.232 51.0448 157.326 51.0336 157.387 51.0567C157.31 51.0567 157.247 51.0431 157.192 51.0234C157.223 50.8499 156.878 50.755 156.764 50.8909C156.778 50.9601 156.876 50.9413 156.885 51.0122C156.865 51.0695 156.815 51.0866 156.841 51.1661C156.794 51.1926 156.741 51.2114 156.687 51.2328C156.682 51.2525 156.721 51.2781 156.687 51.2875C156.517 51.2806 156.357 51.2627 156.24 51.1986C156.387 51.1986 156.477 51.2251 156.601 51.1541C156.601 51.108 156.627 51.1149 156.613 51.0662C156.634 51.0517 156.665 51.0456 156.688 51.0328C156.681 50.9892 156.632 50.9397 156.678 50.9012C156.508 50.8611 156.445 50.7123 156.361 50.5824C156.411 50.4918 156.231 50.4448 156.177 50.3859C156.257 50.3406 156.2 50.2268 156.154 50.1884C156.017 50.1721 155.87 50.1679 155.73 50.1559C155.753 50.3303 155.593 50.3926 155.576 50.5174C155.623 50.5226 155.631 50.5029 155.663 50.5174C155.672 50.5721 155.697 50.6098 155.718 50.6499C155.692 50.6551 155.693 50.6302 155.663 50.6379C155.667 50.6695 155.683 50.685 155.687 50.7149C155.853 50.6756 155.914 50.8269 156.056 50.8482C156.051 50.8893 156.044 50.9302 156.014 50.9456C155.909 50.8764 155.793 50.8166 155.62 50.8149C155.623 50.7978 155.634 50.797 155.62 50.7816C155.576 50.7747 155.503 50.7969 155.478 50.7696C155.436 50.6764 155.028 50.6705 154.869 50.6927C154.865 50.7859 154.982 50.761 154.999 50.8363C154.952 50.8645 154.904 50.8482 154.878 50.8799C154.888 50.8918 154.918 50.8841 154.911 50.9131C154.868 50.9234 154.822 50.9302 154.801 50.8909C154.808 50.8704 154.834 50.8705 154.811 50.8482C154.694 50.8183 154.391 50.8627 154.256 50.9456C154.204 50.9199 154.142 50.9687 154.114 50.9251C154.193 50.92 154.097 50.8901 154.114 50.8482C154.117 50.8218 154.163 50.8362 154.169 50.8149C153.89 50.8302 153.733 51.0089 153.481 50.991C153.472 51.0252 153.516 51.0054 153.512 51.0336C153.472 51.0371 153.435 51.0447 153.405 51.0567V51.1773C153.258 51.2046 153.162 51.1789 153.033 51.0789C153.071 51.0285 153.152 51.0208 153.241 51.0242C153.182 50.8584 152.923 50.879 152.751 50.8807C152.861 50.9106 152.947 50.9875 152.891 51.1225C153.024 51.1319 152.984 51.2713 152.991 51.3422C152.951 51.2568 152.811 51.2747 152.717 51.2448C152.644 51.3268 152.5 51.3422 152.434 51.432C152.464 51.4952 152.551 51.5045 152.564 51.5857C152.467 51.5943 152.36 51.5303 152.259 51.5645C152.294 51.514 152.14 51.4824 152.063 51.4756C152.07 51.5132 152.056 51.5286 152.019 51.52C152.051 51.5892 152.129 51.6482 152.226 51.6183C152.236 51.6482 152.259 51.6661 152.27 51.6943C152.073 51.7473 151.972 51.6071 151.812 51.5866C151.832 51.5233 151.765 51.4763 151.724 51.443C151.765 51.449 151.759 51.4046 151.778 51.3883C151.755 51.3131 151.671 51.2969 151.582 51.2901C151.578 51.1969 151.435 51.2362 151.385 51.1354C151.671 51.2217 152.364 51.4969 152.587 51.1354C152.527 51.0678 152.363 50.949 152.313 50.9806C152.051 50.902 151.786 50.708 151.462 50.7841C151.462 50.7687 151.469 50.7602 151.474 50.7516C151.439 50.7457 151.422 50.7584 151.397 50.7619C151.43 50.7072 151.318 50.7567 151.32 50.7174H151.409C151.346 50.6473 151.255 50.6594 151.202 50.7064C151.152 50.6841 151.052 50.6525 151.015 50.6858C150.982 50.6824 150.971 50.6542 150.948 50.6405C151.04 50.6585 151.055 50.6021 151.136 50.6089C151.069 50.52 150.939 50.5371 150.842 50.4986C150.801 50.5038 150.812 50.5568 150.775 50.5645C150.761 50.5568 150.785 50.5303 150.755 50.52C150.782 50.5192 150.797 50.5038 150.799 50.4773C150.729 50.4679 150.382 50.5038 150.296 50.4773C150.312 50.52 149.804 50.691 149.794 50.6525C149.71 50.6893 149.401 50.785 149.455 50.7961C149.424 50.8781 149.277 50.9465 149.26 50.938C149.23 50.9816 149.091 50.9782 149.096 51.0482C149.143 51.0696 148.953 51.1687 148.933 51.1798C148.975 51.1781 148.9 51.2396 148.866 51.2465C148.898 51.2567 148.849 51.3336 148.856 51.3439C148.793 51.3619 148.76 51.4516 148.748 51.4866C148.707 51.5097 148.632 51.5781 148.606 51.5755C148.476 51.6473 148.444 51.7961 148.289 51.7961C148.262 51.8114 148.052 51.9327 147.961 51.9378C147.949 51.9729 147.925 52.0148 147.918 52.0267C147.871 52.0148 147.794 52.0943 147.778 52.0926C147.764 52.1336 147.801 52.2849 147.809 52.3772C147.831 52.4139 147.844 52.4627 147.809 52.4772C147.814 52.5037 147.79 52.5003 147.797 52.5319C147.846 52.572 147.867 52.5917 147.841 52.5977C147.851 52.6285 147.826 52.625 147.831 52.6524C147.864 52.7105 147.979 52.754 147.983 52.7737C148.184 52.8318 148.352 52.6951 148.43 52.5865C148.465 52.631 148.502 52.5865 148.538 52.5745C148.561 52.5429 148.519 52.5113 148.561 52.4977C148.566 52.5259 148.565 52.5378 148.583 52.5745H148.648C148.631 52.725 148.741 52.9122 148.898 53.0583C148.844 53.0669 148.844 53.125 148.844 53.1455C148.79 53.119 148.709 53.1891 148.657 53.1686C148.671 53.1737 148.684 53.1805 148.69 53.189C148.667 53.2036 148.631 53.2087 148.603 53.2241C148.623 53.2412 148.717 53.3737 148.7 53.3771C148.67 53.3763 148.63 53.3293 148.613 53.3771C148.626 53.3797 148.619 53.39 148.613 53.3994C148.651 53.4224 148.719 53.4173 148.766 53.4318C148.766 53.3856 148.793 53.3626 148.843 53.366C148.854 53.3121 148.782 53.3711 148.789 53.3446C148.766 53.2882 148.843 53.3344 148.832 53.2899C148.827 53.2685 148.79 53.2814 148.801 53.2455C148.879 53.2515 148.827 53.1745 148.864 53.1574C148.878 53.1899 148.907 53.2028 148.92 53.2344C148.884 53.2242 148.903 53.2702 148.887 53.2779C148.957 53.295 149.062 53.2891 149.116 53.2566C149.118 53.2233 149.081 53.2249 149.095 53.1796C149.121 53.1634 149.138 53.1532 149.172 53.1694C149.175 53.1498 149.154 53.1396 149.172 53.1361C149.228 53.1378 149.295 53.1293 149.335 53.1464C149.403 53.0344 149.455 52.8942 149.422 52.8062C149.462 52.8181 149.459 52.7404 149.434 52.7079C149.486 52.713 149.452 52.6942 149.444 52.6754C149.511 52.6797 149.551 52.5909 149.598 52.643C149.618 52.5746 149.67 52.6011 149.707 52.5439C149.689 52.5182 149.66 52.5328 149.653 52.5217C149.689 52.4977 149.736 52.478 149.749 52.4567C149.713 52.3695 149.646 52.3797 149.597 52.3028C149.541 52.3241 149.55 52.2832 149.489 52.2909C149.499 52.2541 149.506 52.0131 149.532 52.0054C149.504 52.0037 149.599 51.8841 149.639 51.8952C149.736 51.755 149.93 51.7738 150.033 51.6097C150.015 51.5884 149.986 51.5764 149.978 51.5431C150.04 51.4926 150.024 51.4294 150.12 51.4226C150.127 51.4055 150.107 51.3661 150.132 51.3678C150.234 51.3994 150.581 51.3345 150.514 51.5319C150.374 51.584 150.187 51.7499 150.132 51.8293C150.097 51.8063 150.071 51.8388 150.043 51.8183C150.054 51.8867 150.003 51.8952 149.989 51.9388C150.088 52.02 150.04 52.2037 150.086 52.3242C150.148 52.2977 150.213 52.3849 150.283 52.3678C150.309 52.4165 150.298 52.4396 150.316 52.4567C150.619 52.3763 150.76 52.3345 151.081 52.3131C151.081 52.3285 151.061 52.3234 151.058 52.3353C151.105 52.4071 151.271 52.3618 151.32 52.4328C151.262 52.4345 151.222 52.4156 151.168 52.4122C151.118 52.4584 151.071 52.478 151.005 52.4567C151.001 52.49 151.04 52.4986 151.015 52.5217C150.721 52.4781 150.504 52.4687 150.327 52.6105C150.407 52.6037 150.394 52.6908 150.427 52.7319C150.481 52.7404 150.507 52.7463 150.546 52.7207C150.512 52.7908 150.53 52.8634 150.546 52.9395C150.437 53.0352 150.344 52.9096 150.283 52.831C150.136 52.8327 150.136 52.9463 150.066 53.0053C150.063 53.166 150.154 53.378 149.935 53.3584C149.97 53.4831 149.716 53.5284 149.706 53.3788C149.422 53.3985 149.152 53.642 148.965 53.5001C148.988 53.4736 149.012 53.4968 149.03 53.4789C149.005 53.4754 148.984 53.4105 148.953 53.4122C148.925 53.4327 148.951 53.4506 148.931 53.4669C148.858 53.4387 148.741 53.507 148.681 53.5557C148.658 53.5378 148.599 53.5557 148.583 53.5344C148.644 53.5403 148.625 53.4677 148.67 53.4575C148.612 53.4489 148.449 53.3976 148.43 53.3796C148.448 53.3796 148.395 53.2823 148.43 53.2703C148.455 53.3335 148.503 53.3668 148.595 53.3352C148.598 53.2865 148.583 53.2583 148.561 53.2369C148.542 53.2506 148.511 53.1686 148.518 53.1386C148.551 53.1506 148.541 53.1395 148.583 53.1386C148.588 53.1156 148.604 53.1019 148.614 53.084C148.597 53.066 148.569 53.0566 148.527 53.0626C148.484 52.9788 148.567 52.8275 148.55 52.8318C148.425 52.8566 148.21 53.0472 148.2 53.0284C148.186 53.0591 148.188 53.1044 148.19 53.1489C148.193 53.1677 148.226 53.1352 148.221 53.1823C148.202 53.1805 148.193 53.2173 148.19 53.2591C148.223 53.2728 148.237 53.254 148.266 53.2805C148.263 53.3472 148.266 53.4207 148.32 53.4575C148.296 53.466 148.261 53.4634 148.254 53.4899C148.315 53.4873 148.308 53.5404 148.31 53.578C148.284 53.5831 148.287 53.5591 148.254 53.5668C148.227 53.5813 148.264 53.6326 148.243 53.6326C148.19 53.6027 148.107 53.5959 148.058 53.589C148.041 53.6147 147.849 53.6292 147.82 53.654C147.833 53.6549 147.731 53.7079 147.699 53.6985C147.652 53.807 147.632 53.9412 147.512 53.9728C147.502 54.0139 147.291 54.1019 147.185 54.1378C147.225 54.3173 147.081 54.33 146.957 54.3676C146.938 54.3933 146.957 54.4283 146.943 54.4351C146.887 54.4667 146.82 54.4231 146.748 54.4351C146.732 54.4018 146.756 54.3975 146.736 54.3676C146.702 54.3975 146.649 54.3548 146.627 54.3796C146.652 54.4061 146.699 54.5129 146.682 54.577C146.619 54.5796 146.573 54.5659 146.497 54.5984C146.479 54.5693 146.472 54.536 146.43 54.5326C146.341 54.5958 146.234 54.5326 146.179 54.6198C146.193 54.6634 146.221 54.6668 146.244 54.6762C146.246 54.707 146.178 54.6659 146.179 54.6975C146.225 54.6958 146.225 54.7403 146.256 54.7523C146.285 54.7215 146.598 54.9044 146.572 54.9488C146.652 55.042 146.719 55.1488 146.714 55.2026C146.703 55.2462 146.661 55.3616 146.702 55.3556C146.668 55.4915 146.608 55.7206 146.418 55.5975C146.104 55.6633 145.55 55.4095 145.383 55.7086C145.408 55.7266 145.423 55.7488 145.404 55.7847C145.426 55.7958 145.441 55.7522 145.45 55.7847C145.456 55.9907 145.323 56.5701 145.318 56.6086C145.348 56.6188 145.346 56.5931 145.373 56.5982C145.403 56.6863 145.343 56.8299 145.35 56.8932C145.4 56.8538 145.467 56.8855 145.523 56.8932C145.758 56.7333 145.726 57.0657 145.907 57.0922C145.97 56.917 146.327 56.9452 146.474 56.9495C146.516 56.8486 146.805 56.5914 146.867 56.5316C146.691 56.4196 146.893 56.2119 146.998 56.1478C146.983 56.1427 146.972 56.1359 146.965 56.1256C147.095 56.0479 147.266 56.0094 147.379 55.9171C147.373 55.8641 147.365 55.8633 147.389 55.8291C147.299 55.7437 147.412 55.6017 147.52 55.5872C147.773 55.7513 148.049 55.6069 148.284 55.4112C148.362 55.4437 148.439 55.4753 148.502 55.5223C148.494 55.6078 148.56 55.6172 148.548 55.7095C148.602 55.7223 148.658 55.7693 148.644 55.818C148.795 55.8462 149.019 56.0513 149.082 56.0496C149.092 56.0838 149.157 56.1248 149.178 56.1376C149.19 56.1581 149.237 56.1821 149.245 56.159C149.26 56.1838 149.272 56.2128 149.266 56.2581C149.321 56.2632 149.325 56.2504 149.385 56.2803C149.466 56.3179 149.469 56.4658 149.472 56.5325C149.471 56.5556 149.425 56.5359 149.419 56.5547C149.436 56.5872 149.431 56.629 149.395 56.6427C149.275 56.6256 149.105 56.7546 149.005 56.6427C148.982 56.6572 148.958 56.6692 148.938 56.6871C148.928 56.676 148.935 56.6461 148.907 56.6547C148.887 56.6812 148.861 56.7034 148.861 56.7529C149.028 56.7991 149.155 56.9401 149.322 56.9503C149.282 56.9213 149.35 56.9068 149.342 56.8726C149.278 56.8025 149.338 56.706 149.385 56.6538C149.382 56.6786 149.389 56.6957 149.395 56.7077H149.472C149.469 56.641 149.527 56.6385 149.549 56.5992C149.549 56.5727 149.531 56.5658 149.539 56.5325C149.572 56.5248 149.586 56.5 149.636 56.5111V56.4128C149.611 56.3812 149.536 56.3881 149.529 56.3462C149.515 56.2846 149.548 56.2256 149.616 56.1923C149.646 56.2205 149.678 56.247 149.746 56.2367C149.763 56.2812 149.772 56.3341 149.833 56.3358C149.819 56.2897 149.856 56.2923 149.856 56.2581C149.76 56.1171 149.562 56.0769 149.419 55.9837C149.425 55.9504 149.475 55.9624 149.462 55.9069C149.222 55.9393 149.091 55.7787 149.048 55.5761C148.955 55.5163 148.817 55.5026 148.83 55.336C148.854 55.3608 149.037 55.1223 149.059 55.1804C149.039 55.1847 149.043 55.3172 149.092 55.336C149.12 55.3266 149.112 55.2822 149.146 55.2813C149.166 55.3078 149.253 55.3727 149.223 55.3796C149.281 55.4608 149.356 55.5231 149.419 55.5992C149.46 55.5924 149.726 55.7556 149.67 55.7309C149.82 55.7633 149.887 55.8786 150.007 55.9393C149.971 56.0085 150.002 56.1735 149.976 56.2043C149.984 56.2727 150.071 56.3923 150.074 56.3462C150.13 56.4 150.193 56.5462 150.195 56.5778C150.235 56.5906 150.212 56.5367 150.249 56.5452C150.263 56.57 150.289 56.5854 150.281 56.6324C150.333 56.6102 150.354 56.629 150.391 56.6324C150.356 56.6615 150.411 56.911 150.445 56.8957C150.505 56.9051 150.529 56.9392 150.565 56.9409C150.589 56.958 150.616 57.0299 150.653 56.9957C150.612 56.9453 150.612 56.8136 150.642 56.8418C150.642 56.8085 150.751 56.7265 150.784 56.7641C150.793 56.7137 150.783 56.7128 150.861 56.6983C150.853 56.6333 150.774 56.6393 150.784 56.5556C150.683 56.5744 150.602 56.4761 150.599 56.4787C150.602 56.4761 150.389 56.2649 150.565 56.1709C150.506 56.2316 150.671 56.3179 150.695 56.3136C150.699 56.2675 150.625 56.2957 150.642 56.2367C150.695 56.2376 150.759 56.2632 150.805 56.2692C150.798 56.2153 150.661 56.171 150.695 56.1376C150.835 56.1282 150.883 56.0854 151.055 56.1265C151.067 56.141 151.102 56.2675 151.089 56.2812C151.102 56.2829 151.099 56.3649 151.089 56.4017C151.142 56.4153 151.185 56.3616 151.218 56.3906C151.212 56.4163 151.26 56.5872 151.229 56.6222C151.172 56.6171 151.209 56.5675 151.142 56.5564C151.124 56.6008 151.198 56.6256 151.131 56.6222C151.142 56.6684 151.282 56.6803 151.294 56.7093C151.306 56.7512 151.271 56.7453 151.261 56.7649C151.303 56.7795 151.338 56.8325 151.361 56.853C151.354 56.8949 151.353 56.9179 151.328 56.9632C151.378 56.9666 151.388 56.9512 151.413 56.9794C151.431 57 151.475 56.9205 151.513 56.9299C151.552 56.9418 151.692 57.0598 151.732 57.0734C151.76 57.0504 151.812 57.0315 151.851 57.052C151.872 57.0204 151.851 56.9487 151.872 56.9205C152.114 56.9384 152.206 57.1751 152.44 57.052C152.455 56.9974 152.49 56.9624 152.538 56.9419C152.6 56.9402 152.613 56.9923 152.68 56.9863C152.712 56.9632 152.722 56.9171 152.778 56.9205C152.78 56.9333 152.794 56.935 152.79 56.9529C152.783 56.9991 152.727 56.994 152.723 57.0402C152.772 57.129 152.737 57.2606 152.79 57.3819C152.657 57.6298 152.617 58.264 152.221 58.0563C152.233 58.0674 152.179 57.9956 152.146 57.9854C152.111 58.0375 152.029 58.0119 151.982 58.0067C151.963 58.0042 151.806 58.0699 151.72 58.1289C151.475 58.0973 151.308 57.9418 151.034 57.9974C151.02 57.9623 151 57.934 150.989 57.8981C150.882 57.8879 150.689 57.9093 150.673 57.7768C150.433 57.6178 150.002 57.7965 150.171 58.117C150.129 58.1768 150.089 58.2392 149.995 58.2486C149.842 58.0332 149.37 58.14 149.331 57.8093C149.191 57.8075 149.136 57.7204 149.004 57.7101C148.871 57.7862 148.792 57.6546 148.666 57.6555C148.65 57.6008 148.65 57.5341 148.601 57.5136C148.571 57.5196 148.584 57.5691 148.547 57.5674C148.51 57.5409 148.47 57.5187 148.47 57.4572C148.557 57.3888 148.673 57.3264 148.643 57.1717C148.59 57.1452 148.538 57.1162 148.547 57.0282C148.608 57.023 148.608 56.9538 148.654 56.9299C148.643 56.9119 148.654 56.8718 148.62 56.8752C148.594 56.9068 148.564 56.9342 148.513 56.9419C148.547 56.912 148.475 56.888 148.513 56.853C148.36 56.7633 148.28 56.9402 148.1 56.9197C148.086 56.888 148.053 56.8751 148.011 56.8743C147.996 56.9375 147.911 56.8939 147.879 56.8743C147.832 56.9213 147.749 56.9324 147.684 56.9632C147.408 56.8666 146.997 56.9563 146.801 57.1281C146.62 57.0811 145.939 57.2846 145.906 57.1068C145.894 57.1282 145.862 57.1298 145.829 57.1281C145.736 57.6435 145.109 57.5991 145.098 58.1717C145.163 58.4281 144.841 58.6657 144.552 58.711C144.474 58.8357 144.447 59.0152 144.28 59.0511C144.23 59.2519 144.152 59.4246 144.023 59.5468C144.02 59.5451 143.762 59.8955 143.79 60.1613C143.797 60.134 143.79 60.0946 143.823 60.0946C143.815 60.1391 143.85 60.1391 143.843 60.1835C143.866 60.2066 143.88 60.1732 143.899 60.1938C143.919 60.2519 143.927 60.3245 143.899 60.3809C143.899 60.3672 143.919 61.1808 143.662 61.3791ZM154.395 55.1599C154.467 55.1958 154.544 55.1086 154.549 55.0821C154.651 54.9967 154.766 54.9565 154.898 54.8856C154.954 54.8976 154.993 54.9266 155.05 54.9394C155.335 54.7719 155.146 55.3752 155.41 55.2051C155.439 55.2299 155.457 55.2685 155.475 55.3035C155.435 55.301 155.434 55.2881 155.4 55.3035C155.4 55.2839 155.435 55.2958 155.432 55.2701C155.283 55.2565 154.989 55.1497 154.941 55.3035C154.946 55.3497 154.995 55.3522 155.018 55.3804C154.98 55.4257 154.929 55.3402 154.843 55.3684C154.829 55.4419 154.88 55.4504 154.941 55.4453C154.963 55.5368 155.272 55.73 155.312 55.7539C155.249 55.9462 155.434 56.1059 155.444 56.3136C155.447 56.2811 155.487 56.4094 155.509 56.4453C155.527 56.441 155.517 56.4111 155.552 56.4239C155.581 56.453 155.601 56.4914 155.651 56.5008C155.622 56.6538 155.686 56.7803 155.716 56.9077C155.605 56.8923 155.51 56.9708 155.4 56.9726C155.248 56.9777 155.187 56.8607 155.083 56.8094C154.893 56.712 154.791 56.7342 154.833 56.4573C154.85 56.4675 154.858 56.4872 154.843 56.5017C154.903 56.5222 154.895 56.3359 154.887 56.2598C154.92 56.2367 154.993 56.206 155.03 56.2487C155.012 56.194 154.969 56.1633 154.887 56.1718C154.769 55.9249 154.449 55.8513 154.463 55.5342C154.423 55.4992 154.326 55.441 154.286 55.3693C154.355 55.3308 154.372 55.2419 154.395 55.1599ZM151.253 52.2148C151.292 52.1396 151.294 52.155 151.35 52.1046C151.471 52.155 151.6 52.1917 151.667 52.2917C151.657 52.3268 151.63 52.3481 151.624 52.39C151.58 52.3934 151.57 52.3652 151.525 52.3686C151.497 52.3703 151.504 52.4054 151.504 52.4336C151.484 52.4439 151.467 52.402 151.46 52.4336C151.404 52.3481 151.347 52.2635 151.253 52.2148ZM152.726 56.0393C152.703 56.0171 152.681 55.9898 152.672 55.9505C152.616 55.9522 152.59 55.9684 152.541 55.9505C152.459 55.8154 151.994 55.8983 151.908 56.0718C151.598 56.088 151.367 56.0051 151.277 55.7974C151.3 55.7854 151.418 55.6197 151.441 55.6C151.409 55.4291 151.481 55.3351 151.472 55.3582C151.504 55.3437 151.546 55.3376 151.581 55.3256C151.584 55.247 151.596 55.218 151.559 55.171C151.626 55.1668 151.712 55.0915 151.723 54.9949C151.744 54.9778 151.912 55.0487 151.93 55.0496C151.894 55.0966 152.128 55.0761 152.182 55.083C152.182 55.1001 152.178 55.1146 152.192 55.1163C152.135 55.153 152.041 55.1565 152.018 55.2257C152.078 55.2283 152.12 55.2634 152.192 55.2813C152.204 55.3112 152.202 55.3633 152.169 55.3796C152.265 55.5061 152.335 55.3094 152.433 55.347C152.45 55.3205 152.482 55.3078 152.498 55.2813C152.563 55.3027 152.588 55.3052 152.65 55.2915C152.632 55.2548 152.647 55.2445 152.673 55.2257C152.631 55.1719 152.566 55.2445 152.541 55.2051C152.513 55.2573 152.47 55.2283 152.423 55.2257C152.456 55.1189 152.353 55.0983 152.366 55.0616C152.598 54.965 152.73 54.8899 153.032 54.8634C152.983 54.9232 152.911 54.9616 152.813 54.9735C152.82 55.0402 152.902 55.0317 152.934 55.0736C152.887 55.0821 152.783 55.1437 152.837 55.2369C152.747 55.2181 152.781 55.2539 152.695 55.2155C152.68 55.2334 152.723 55.2607 152.674 55.2701C152.981 55.3907 153.201 55.6103 153.511 55.7539C153.737 56.2359 152.936 56.0787 152.726 56.0393ZM168.413 64.5123C168.433 64.5217 168.433 64.5516 168.458 64.5559C168.467 64.5294 168.483 64.5089 168.48 64.467C168.457 64.4268 168.313 64.4576 168.371 64.4849C168.27 64.4482 168.219 64.5602 168.14 64.5004C168.099 64.5269 168.084 64.5755 168.053 64.6105C168.008 64.614 168.011 64.596 167.976 64.6105C167.961 64.5712 167.978 64.5704 167.964 64.5336C167.838 64.5037 167.856 64.2977 167.945 64.2362C168.195 64.2183 168.409 64.2909 168.664 64.2482C168.689 64.1516 168.799 64.0978 168.783 63.9961C168.765 63.9961 168.75 63.9927 168.74 63.9842C168.701 64.0149 168.733 64.0508 168.664 64.0491C168.579 64.2448 168.328 64.1089 168.128 64.1157V64.0704C168.08 64.1021 168.07 64.0491 168.008 64.0602C168.018 64.1235 167.983 64.144 167.954 64.1705C167.926 64.1731 167.946 64.1268 167.911 64.1371C167.876 64.179 167.86 64.2405 167.823 64.2798C167.815 64.314 167.852 64.3012 167.843 64.3345C167.826 64.3704 167.799 64.2918 167.799 64.3457C167.84 64.361 167.81 64.4456 167.833 64.4772C167.686 64.5097 167.782 64.8157 167.636 64.8849C167.675 64.9268 167.617 64.9866 167.659 65.049C167.689 65.0439 167.716 65.0336 167.746 65.0268C167.815 65.1858 167.736 65.2772 167.723 65.4558C167.764 65.4524 167.765 65.4892 167.8 65.4892C167.822 65.4328 167.895 65.4643 167.921 65.4558C167.852 65.2985 167.984 65.1037 167.901 64.9285C167.945 64.9089 167.988 64.8319 168.041 64.8849C168.045 64.9302 168.036 65.0055 167.998 65.0388C168.034 65.0858 168.078 65.1277 168.128 65.1601C168.111 65.1977 168.093 65.2541 168.108 65.2909C168.138 65.3028 168.163 65.3225 168.217 65.3131C168.17 65.2156 168.308 65.2319 168.358 65.225V65.1481C168.306 65.1575 168.308 65.0883 168.248 65.0592C168.3 65.0242 168.234 64.996 168.293 64.9824C168.255 64.8935 168.152 64.7704 168.108 64.6969C168.213 64.7593 168.315 64.5618 168.413 64.5123ZM148.252 56.523C148.255 56.5051 148.277 56.5145 148.285 56.523C148.313 56.4974 148.308 56.4795 148.319 56.4564C148.357 56.4505 148.372 56.4701 148.396 56.4787C148.422 56.3137 148.455 56.2043 148.396 56.0607C148.362 56.0642 148.362 56.0359 148.329 56.0393C148.302 56.0829 148.231 56.1565 148.177 56.1052C148.173 56.1308 148.159 56.1462 148.165 56.1821C148.219 56.2094 148.23 56.2624 148.198 56.3034C148.202 56.3419 148.228 56.3017 148.231 56.3248C148.184 56.3846 148.212 56.4384 148.198 56.5008C148.244 56.4666 148.215 56.5025 148.252 56.523ZM157.33 49.0936C157.423 49.1346 157.561 49.1671 157.668 49.127C157.674 49.1082 157.651 49.0987 157.668 49.0936C157.697 49.1004 157.737 49.062 157.757 49.0936C157.701 49.0919 157.714 49.115 157.745 49.127C157.693 49.1227 157.677 49.1526 157.647 49.1706C157.838 49.1723 158.208 49.3294 158.498 49.2363C158.362 49.1884 158.368 49.062 158.16 49.0833C158.155 49.1013 158.177 49.1115 158.16 49.115C158.148 49.085 158.108 49.115 158.105 49.127C158.105 49.1082 158.109 49.0919 158.117 49.0833C158.077 49.0748 158.039 49.0662 157.986 49.0714C158.019 49.0295 157.919 49.0492 157.921 49.0065C157.942 48.9988 157.992 49.0192 157.997 48.9945C157.779 48.9526 157.572 48.8663 157.398 48.9945C157.414 49.0004 157.455 48.9808 157.452 49.0065C157.439 49.0082 157.445 49.0175 157.452 49.0269C157.404 49.0252 157.356 49.0244 157.344 49.0595C157.372 49.0663 157.429 49.0457 157.442 49.0714C157.427 49.103 157.343 49.062 157.33 49.0936ZM168.544 66.2362C168.532 66.2028 168.524 66.231 168.49 66.2148C168.446 66.2361 168.366 66.3395 168.436 66.3686C168.406 66.3754 168.375 66.3806 168.38 66.4233C168.644 66.3387 168.846 66.1506 169.091 66.0173C168.882 66.0173 168.647 66.0541 168.544 66.2362ZM168.413 62.5774C168.375 62.5825 168.392 62.6432 168.326 62.6219C168.317 62.6697 168.336 62.6825 168.305 62.6987C168.147 62.6928 168.193 62.8235 168.152 62.9304C168.172 62.9355 168.172 62.9603 168.206 62.9517C168.238 62.868 168.213 62.7979 168.305 62.7756V62.8415C168.352 62.8517 168.333 62.7979 168.369 62.7979C168.35 62.8397 168.393 62.8243 168.426 62.8525C168.399 62.8106 168.414 62.8064 168.436 62.7636C168.487 62.7884 168.546 62.8064 168.555 62.8739C168.427 62.9825 168.653 63.2432 168.751 63.1158C168.746 63.168 168.734 63.1996 168.783 63.2141C168.862 63.1594 168.838 63.0338 168.773 62.9834C168.778 62.9551 168.788 62.9321 168.806 62.9167C168.831 62.9141 168.818 62.9483 168.84 62.95C168.859 62.8978 168.789 62.8783 168.84 62.862C168.883 62.9159 168.88 63.0183 168.927 63.0705C168.974 62.8645 168.977 62.803 168.927 62.6201C168.92 62.6013 168.873 62.6209 168.872 62.5979C168.89 62.5842 168.914 62.5765 168.916 62.5432C168.899 62.5235 168.877 62.5099 168.884 62.4663C168.81 62.4526 168.797 62.3774 168.73 62.3569C168.723 62.4304 168.767 62.4526 168.763 62.521C168.707 62.5116 168.7 62.5081 168.687 62.5543C168.676 62.5355 168.667 62.5158 168.632 62.521C168.625 62.5509 168.647 62.6081 168.622 62.6201C168.6 62.6158 168.593 62.597 168.567 62.5979C168.547 62.6192 168.553 62.6662 168.534 62.6867C168.516 62.685 168.5 62.6885 168.49 62.6979C168.502 62.6142 168.434 62.5979 168.413 62.5774ZM145.385 53.9617C145.415 53.9591 145.485 53.9762 145.493 54.0061C145.465 53.9993 145.472 54.0275 145.462 54.0395C145.692 54.0233 145.826 53.8992 146.015 53.8745C146.045 53.8104 146.105 53.6327 146.038 53.5455C146.095 53.56 146.162 53.495 146.191 53.4455C146.159 53.395 146.129 53.3934 146.115 53.3139C146.038 53.2891 145.975 53.3523 145.942 53.2805C145.826 53.3087 145.756 53.3369 145.69 53.4241C145.708 53.4378 145.753 53.4258 145.765 53.4455C145.728 53.4779 145.665 53.4822 145.625 53.5113C145.625 53.4506 145.53 53.4882 145.493 53.4899C145.481 53.5087 145.485 53.5472 145.462 53.5557C145.498 53.5805 145.528 53.5626 145.558 53.5771C145.515 53.5874 145.468 53.6549 145.462 53.666C145.535 53.6677 145.562 53.7036 145.625 53.6985C145.551 53.7215 145.535 53.7992 145.471 53.83C145.491 53.8411 145.508 53.7967 145.515 53.83C145.458 53.8334 145.406 53.9437 145.385 53.9617ZM148.92 49.115C148.864 49.1184 148.71 49.1073 148.7 49.1363C148.656 49.0859 148.603 49.1466 148.549 49.1492C148.558 49.2099 148.626 49.2449 148.679 49.203C148.679 49.2466 148.613 49.2253 148.592 49.2466C148.682 49.3133 148.856 49.4133 148.983 49.3133C148.971 49.3116 148.953 49.315 148.951 49.3013C148.966 49.3013 148.961 49.2833 148.972 49.2799C149.037 49.309 149.119 49.3397 149.201 49.2799C149.191 49.2944 149.184 49.3133 149.17 49.3235C149.049 49.3321 148.97 49.3885 148.853 49.3671C148.833 49.4654 148.984 49.3894 149.007 49.4458C148.99 49.4757 148.903 49.4089 148.896 49.4671C148.943 49.5124 149.025 49.5209 149.103 49.5329C149.101 49.5722 149.22 49.6192 149.289 49.5876C149.294 49.567 149.275 49.5671 149.269 49.5543C149.337 49.5432 149.302 49.4278 149.411 49.4552C149.429 49.4227 149.407 49.3995 149.421 49.3782H149.488C149.493 49.3602 149.474 49.3141 149.498 49.3133C149.57 49.309 149.645 49.2603 149.705 49.3013C149.675 49.309 149.618 49.2876 149.607 49.3133C149.673 49.3347 149.708 49.3851 149.782 49.4013C149.748 49.4159 149.715 49.4286 149.705 49.4671C149.798 49.4636 149.829 49.4637 149.901 49.4458C149.891 49.4595 149.888 49.4748 149.891 49.4996C149.991 49.4817 150.077 49.4457 150.161 49.4116C150.098 49.3722 150.007 49.4227 149.954 49.3663C149.968 49.3663 149.984 49.3696 149.988 49.356C149.958 49.3346 149.893 49.3492 149.846 49.3449C149.867 49.2646 149.766 49.309 149.737 49.2791C149.751 49.2774 149.762 49.2756 149.757 49.2577C149.622 49.2192 149.454 49.2389 149.419 49.1483C149.363 49.1261 149.336 49.1867 149.323 49.1688C149.313 49.1338 149.356 49.1535 149.354 49.1253C149.256 49.0851 149.216 49.1133 149.125 49.0817C149.125 49.0996 149.115 49.1099 149.102 49.1133C149.113 49.1697 149.195 49.2098 149.191 49.2448C149.101 49.1961 149.026 49.0706 148.907 49.1475C148.892 49.174 148.951 49.1808 148.919 49.1902C148.901 49.1534 148.86 49.174 148.843 49.1577C148.858 49.1355 148.915 49.1517 148.92 49.115ZM153.599 50.3029C153.627 50.5055 153.854 50.344 153.947 50.467C153.93 50.4687 153.907 50.4628 153.904 50.479C153.956 50.4842 153.925 50.4987 153.904 50.5106C153.954 50.5243 154.028 50.5439 154.079 50.5217C154.131 50.5585 154.375 50.5875 154.448 50.5217C154.124 50.485 153.939 50.1936 154.252 50.0389C154.268 50.0115 154.209 50.0038 154.242 49.9944C154.26 50.0175 154.305 49.9713 154.317 49.9508C154.307 49.9483 154.27 49.921 154.298 49.9175C154.364 49.9552 154.331 49.8705 154.417 49.9064C154.428 49.8765 154.462 49.8713 154.493 49.8619C154.639 49.6696 155.099 49.7696 155.299 49.5876C155.224 49.4935 155.037 49.5235 154.928 49.5653C154.925 49.5867 154.946 49.5876 154.952 49.5987C154.808 49.6004 154.616 49.6756 154.416 49.632C154.389 49.6474 154.428 49.6722 154.405 49.6756C154.307 49.6654 154.07 49.7124 154.088 49.7859C154.065 49.7594 153.95 49.7774 154.013 49.8073C153.981 49.8321 153.945 49.7936 153.893 49.8073C153.884 49.8551 153.954 49.8252 153.97 49.8517C153.95 49.8526 153.933 49.8594 153.926 49.8731C153.947 49.8791 153.996 49.8585 154.001 49.8842H153.903C153.889 49.9192 153.938 49.8927 153.926 49.9286C153.858 49.9602 153.819 50.0192 153.739 50.0389C153.762 50.0594 153.814 50.0517 153.837 50.0713C153.823 50.0747 153.829 50.0842 153.837 50.0927C153.799 50.0953 153.785 50.1201 153.739 50.1149C153.739 50.1611 153.722 50.1731 153.662 50.1808C153.655 50.2286 153.718 50.2038 153.729 50.2354C153.711 50.2551 153.702 50.2816 153.685 50.3021C153.64 50.3055 153.635 50.285 153.599 50.3029ZM170.126 55.665C170.117 55.6351 170.143 55.6367 170.139 55.6103C170.103 55.6017 170.116 55.6385 170.094 55.6436C170.021 55.5855 169.966 55.5299 169.942 55.4231C169.928 55.4547 169.925 55.4966 169.898 55.512C169.641 55.4658 169.457 55.318 169.254 55.1933C169.261 55.23 169.231 55.2103 169.221 55.2051C169.331 55.3487 169.396 55.4898 169.44 55.6556C169.394 55.6744 169.329 55.6188 169.275 55.6325C169.275 55.6769 169.328 55.6701 169.341 55.6991C169.324 55.7222 169.315 55.7522 169.275 55.7539C169.322 55.8624 169.401 55.941 169.483 56.018C169.508 55.9863 169.492 55.9736 169.504 55.9402C169.522 55.9428 169.575 55.9692 169.592 55.9291C169.538 55.8667 169.395 55.8958 169.385 55.7864C169.439 55.7804 169.462 55.8043 169.483 55.8308C169.53 55.8308 169.525 55.7761 169.57 55.7761C169.691 55.8129 169.791 55.8692 169.909 55.9077C169.805 55.6983 170.012 55.7001 170.126 55.665ZM146.181 52.9293C146.167 52.9233 146.156 52.9173 146.15 52.9062C146.155 52.8686 146.139 52.8515 146.116 52.8412C146.106 52.895 146.058 52.8481 146.05 52.9062C146.1 52.9062 146.15 52.99 146.191 52.9626C146.173 53.019 146.125 53.0695 146.126 53.0831C146.108 53.1139 146.083 53.0788 146.083 53.1156C146.16 53.1267 146.183 53.084 146.225 53.0618C146.209 53.1088 146.15 53.2429 146.15 53.3027C146.223 53.2925 146.203 53.1814 146.258 53.1814C146.297 53.1925 146.297 53.2447 146.323 53.2703C146.269 53.2806 146.276 53.3472 146.225 53.3592C146.232 53.3823 146.261 53.4378 146.279 53.413C146.25 53.3694 146.336 53.4078 146.344 53.4249C146.371 53.3796 146.456 53.4019 146.508 53.36C146.496 53.3934 146.459 53.407 146.453 53.4471C146.479 53.4719 146.483 53.5206 146.52 53.536C146.526 53.5087 146.555 53.5173 146.563 53.5241C146.54 53.6609 146.43 53.7113 146.29 53.6677C146.279 53.7096 146.316 53.6993 146.313 53.7343C146.29 53.7446 146.266 53.7523 146.258 53.7771C146.297 53.7814 146.318 53.7643 146.345 53.7557C146.4 53.8822 146.256 53.9062 146.16 53.9421C146.163 53.9797 146.19 53.9565 146.172 53.9976C146.22 54.0283 146.245 53.9814 146.3 53.9865C146.307 54.0036 146.314 54.0044 146.3 54.019C146.337 54.0249 146.352 54.0112 146.377 54.0078C146.407 54.1035 146.514 54.0044 146.554 54.019C146.51 54.0258 146.505 54.0668 146.477 54.0848C146.38 54.0583 146.323 54.0898 146.258 54.1189C146.243 54.2351 146.108 54.2318 146.062 54.3156C146.107 54.2737 146.123 54.3326 146.16 54.3156C146.183 54.26 146.314 54.2266 146.377 54.283C146.395 54.2095 146.694 54.1839 146.771 54.2061C146.786 54.1984 146.771 54.1634 146.792 54.1617C146.894 54.1899 147.061 54.1591 147.163 54.107C147.155 54.0737 147.175 54.0668 147.175 54.042C147.145 54.0531 147.091 54.0616 147.077 54.03C147.105 54.0163 147.236 53.8984 147.229 53.7882C147.194 53.7412 147.055 53.7216 147.012 53.7771C146.998 53.7754 146.995 53.7643 146.989 53.7557C146.992 53.725 147.043 53.7412 147.034 53.7011C146.994 53.6233 146.969 53.6087 146.969 53.5138C146.769 53.4574 146.789 53.096 146.532 53.1626C146.561 53.1379 146.615 53.1369 146.642 53.1079C146.622 53.1087 146.612 53.0993 146.608 53.0865C146.692 53.0463 146.722 52.9541 146.772 52.878C146.695 52.8165 146.56 52.8489 146.455 52.8669C146.474 52.8361 146.502 52.8293 146.455 52.8114C146.521 52.7695 146.607 52.7361 146.618 52.6695C146.508 52.6695 146.22 52.7686 146.271 52.801C146.241 52.819 146.222 52.7951 146.192 52.8216C146.179 52.8635 146.191 52.9062 146.181 52.9293ZM154.245 86.5553L147.085 69.8872H146.243L139.005 86.3732C138.649 87.2057 138.03 88.5962 137.365 89.2244C136.259 90.4824 135.637 89.9799 135.637 90.8004H142.57C142.57 89.5731 140.213 90.326 140.213 88.7167C140.213 88.2313 140.516 87.4817 140.704 87.0407L142.004 83.9974H149.571L150.709 86.7459C150.926 87.2638 151.29 88.1758 151.29 88.7416C151.29 90.7363 149.22 89.497 149.22 90.8004H157.765C157.765 89.3346 156.192 91.2234 154.245 86.5553ZM142.697 82.3846L145.838 75.0535L148.896 82.3846H142.697ZM121.603 71.9152C122.052 72.3853 122.556 73.2023 122.92 73.7484L128.458 82.312V87.0083C128.458 87.4681 128.44 88.674 128.169 89.0646C127.044 90.6833 125.535 89.7406 125.535 90.8004H134.778C134.778 89.4577 131.854 91.1217 131.854 87.0075V81.8906L136.716 74.2886C137.135 73.6066 137.649 72.7878 138.196 72.2135C140.483 69.9264 141.17 70.8051 141.17 69.8864H133.552C133.552 71.3563 137.524 69.7787 134.745 74.1288L130.938 80.084L126.931 73.8399C126.7 73.4801 126.047 72.4536 126.047 72.0178C126.047 70.2785 128.395 71.0564 128.395 69.8864H119.196C119.197 70.9341 119.819 70.0341 121.603 71.9152Z" fill="#A89879"/>
</svg>
